<?xml version="1.0" encoding="utf-8"?>
<svg xmlns="http://www.w3.org/2000/svg" xmlns:xlink="http://www.w3.org/1999/xlink" width="600" height="400" viewBox="0 0 2400 1600">
<defs>
  <clipPath id="clip730">
    <rect x="0" y="0" width="2400" height="1600"/>
  </clipPath>
</defs>
<path clip-path="url(#clip730)" d="M0 1600 L2400 1600 L2400 8.88178e-14 L0 8.88178e-14  Z" fill="#ffffff" fill-rule="evenodd" fill-opacity="1"/>
<defs>
  <clipPath id="clip731">
    <rect x="1457" y="672" width="814" height="814"/>
  </clipPath>
</defs>
<path clip-path="url(#clip730)" d="M210.746 1423.18 L2352.76 1423.18 L2352.76 123.472 L210.746 123.472  Z" fill="#ffffff" fill-rule="evenodd" fill-opacity="1"/>
<defs>
  <clipPath id="clip732">
    <rect x="210" y="123" width="2143" height="1301"/>
  </clipPath>
</defs>
<polyline clip-path="url(#clip732)" style="stroke:#000000; stroke-linecap:round; stroke-linejoin:round; stroke-width:2; stroke-opacity:0.1; fill:none" points="340.303,1423.18 340.303,123.472 "/>
<polyline clip-path="url(#clip732)" style="stroke:#000000; stroke-linecap:round; stroke-linejoin:round; stroke-width:2; stroke-opacity:0.1; fill:none" points="654.119,1423.18 654.119,123.472 "/>
<polyline clip-path="url(#clip732)" style="stroke:#000000; stroke-linecap:round; stroke-linejoin:round; stroke-width:2; stroke-opacity:0.1; fill:none" points="967.935,1423.18 967.935,123.472 "/>
<polyline clip-path="url(#clip732)" style="stroke:#000000; stroke-linecap:round; stroke-linejoin:round; stroke-width:2; stroke-opacity:0.1; fill:none" points="1281.75,1423.18 1281.75,123.472 "/>
<polyline clip-path="url(#clip732)" style="stroke:#000000; stroke-linecap:round; stroke-linejoin:round; stroke-width:2; stroke-opacity:0.1; fill:none" points="1595.57,1423.18 1595.57,123.472 "/>
<polyline clip-path="url(#clip732)" style="stroke:#000000; stroke-linecap:round; stroke-linejoin:round; stroke-width:2; stroke-opacity:0.1; fill:none" points="1909.38,1423.18 1909.38,123.472 "/>
<polyline clip-path="url(#clip732)" style="stroke:#000000; stroke-linecap:round; stroke-linejoin:round; stroke-width:2; stroke-opacity:0.1; fill:none" points="2223.2,1423.18 2223.2,123.472 "/>
<polyline clip-path="url(#clip732)" style="stroke:#000000; stroke-linecap:round; stroke-linejoin:round; stroke-width:2; stroke-opacity:0.1; fill:none" points="210.746,1386.4 2352.76,1386.4 "/>
<polyline clip-path="url(#clip732)" style="stroke:#000000; stroke-linecap:round; stroke-linejoin:round; stroke-width:2; stroke-opacity:0.1; fill:none" points="210.746,1079.86 2352.76,1079.86 "/>
<polyline clip-path="url(#clip732)" style="stroke:#000000; stroke-linecap:round; stroke-linejoin:round; stroke-width:2; stroke-opacity:0.1; fill:none" points="210.746,773.326 2352.76,773.326 "/>
<polyline clip-path="url(#clip732)" style="stroke:#000000; stroke-linecap:round; stroke-linejoin:round; stroke-width:2; stroke-opacity:0.1; fill:none" points="210.746,466.791 2352.76,466.791 "/>
<polyline clip-path="url(#clip732)" style="stroke:#000000; stroke-linecap:round; stroke-linejoin:round; stroke-width:2; stroke-opacity:0.1; fill:none" points="210.746,160.256 2352.76,160.256 "/>
<polyline clip-path="url(#clip730)" style="stroke:#000000; stroke-linecap:round; stroke-linejoin:round; stroke-width:4; stroke-opacity:1; fill:none" points="210.746,1423.18 2352.76,1423.18 "/>
<polyline clip-path="url(#clip730)" style="stroke:#000000; stroke-linecap:round; stroke-linejoin:round; stroke-width:4; stroke-opacity:1; fill:none" points="340.303,1423.18 340.303,1404.28 "/>
<polyline clip-path="url(#clip730)" style="stroke:#000000; stroke-linecap:round; stroke-linejoin:round; stroke-width:4; stroke-opacity:1; fill:none" points="654.119,1423.18 654.119,1404.28 "/>
<polyline clip-path="url(#clip730)" style="stroke:#000000; stroke-linecap:round; stroke-linejoin:round; stroke-width:4; stroke-opacity:1; fill:none" points="967.935,1423.18 967.935,1404.28 "/>
<polyline clip-path="url(#clip730)" style="stroke:#000000; stroke-linecap:round; stroke-linejoin:round; stroke-width:4; stroke-opacity:1; fill:none" points="1281.75,1423.18 1281.75,1404.28 "/>
<polyline clip-path="url(#clip730)" style="stroke:#000000; stroke-linecap:round; stroke-linejoin:round; stroke-width:4; stroke-opacity:1; fill:none" points="1595.57,1423.18 1595.57,1404.28 "/>
<polyline clip-path="url(#clip730)" style="stroke:#000000; stroke-linecap:round; stroke-linejoin:round; stroke-width:4; stroke-opacity:1; fill:none" points="1909.38,1423.18 1909.38,1404.28 "/>
<polyline clip-path="url(#clip730)" style="stroke:#000000; stroke-linecap:round; stroke-linejoin:round; stroke-width:4; stroke-opacity:1; fill:none" points="2223.2,1423.18 2223.2,1404.28 "/>
<path clip-path="url(#clip730)" d="M287.329 1468.75 L317.004 1468.75 L317.004 1472.69 L287.329 1472.69 L287.329 1468.75 Z" fill="#000000" fill-rule="nonzero" fill-opacity="1" /><path clip-path="url(#clip730)" d="M327.907 1481.64 L335.546 1481.64 L335.546 1455.28 L327.236 1456.95 L327.236 1452.69 L335.5 1451.02 L340.176 1451.02 L340.176 1481.64 L347.814 1481.64 L347.814 1485.58 L327.907 1485.58 L327.907 1481.64 Z" fill="#000000" fill-rule="nonzero" fill-opacity="1" /><path clip-path="url(#clip730)" d="M357.259 1479.7 L362.143 1479.7 L362.143 1485.58 L357.259 1485.58 L357.259 1479.7 Z" fill="#000000" fill-rule="nonzero" fill-opacity="1" /><path clip-path="url(#clip730)" d="M372.374 1451.02 L390.731 1451.02 L390.731 1454.96 L376.657 1454.96 L376.657 1463.43 Q377.675 1463.08 378.694 1462.92 Q379.712 1462.73 380.731 1462.73 Q386.518 1462.73 389.897 1465.9 Q393.277 1469.08 393.277 1474.49 Q393.277 1480.07 389.805 1483.17 Q386.333 1486.25 380.013 1486.25 Q377.837 1486.25 375.569 1485.88 Q373.323 1485.51 370.916 1484.77 L370.916 1480.07 Q372.999 1481.2 375.222 1481.76 Q377.444 1482.32 379.921 1482.32 Q383.925 1482.32 386.263 1480.21 Q388.601 1478.1 388.601 1474.49 Q388.601 1470.88 386.263 1468.77 Q383.925 1466.67 379.921 1466.67 Q378.046 1466.67 376.171 1467.08 Q374.319 1467.5 372.374 1468.38 L372.374 1451.02 Z" fill="#000000" fill-rule="nonzero" fill-opacity="1" /><path clip-path="url(#clip730)" d="M600.647 1468.75 L630.323 1468.75 L630.323 1472.69 L600.647 1472.69 L600.647 1468.75 Z" fill="#000000" fill-rule="nonzero" fill-opacity="1" /><path clip-path="url(#clip730)" d="M641.225 1481.64 L648.864 1481.64 L648.864 1455.28 L640.554 1456.95 L640.554 1452.69 L648.818 1451.02 L653.494 1451.02 L653.494 1481.64 L661.133 1481.64 L661.133 1485.58 L641.225 1485.58 L641.225 1481.64 Z" fill="#000000" fill-rule="nonzero" fill-opacity="1" /><path clip-path="url(#clip730)" d="M670.577 1479.7 L675.461 1479.7 L675.461 1485.58 L670.577 1485.58 L670.577 1479.7 Z" fill="#000000" fill-rule="nonzero" fill-opacity="1" /><path clip-path="url(#clip730)" d="M695.646 1454.1 Q692.035 1454.1 690.207 1457.66 Q688.401 1461.2 688.401 1468.33 Q688.401 1475.44 690.207 1479.01 Q692.035 1482.55 695.646 1482.55 Q699.281 1482.55 701.086 1479.01 Q702.915 1475.44 702.915 1468.33 Q702.915 1461.2 701.086 1457.66 Q699.281 1454.1 695.646 1454.1 M695.646 1450.39 Q701.457 1450.39 704.512 1455 Q707.591 1459.58 707.591 1468.33 Q707.591 1477.06 704.512 1481.67 Q701.457 1486.25 695.646 1486.25 Q689.836 1486.25 686.758 1481.67 Q683.702 1477.06 683.702 1468.33 Q683.702 1459.58 686.758 1455 Q689.836 1450.39 695.646 1450.39 Z" fill="#000000" fill-rule="nonzero" fill-opacity="1" /><path clip-path="url(#clip730)" d="M914.961 1468.75 L944.636 1468.75 L944.636 1472.69 L914.961 1472.69 L914.961 1468.75 Z" fill="#000000" fill-rule="nonzero" fill-opacity="1" /><path clip-path="url(#clip730)" d="M964.729 1454.1 Q961.118 1454.1 959.289 1457.66 Q957.484 1461.2 957.484 1468.33 Q957.484 1475.44 959.289 1479.01 Q961.118 1482.55 964.729 1482.55 Q968.363 1482.55 970.169 1479.01 Q971.997 1475.44 971.997 1468.33 Q971.997 1461.2 970.169 1457.66 Q968.363 1454.1 964.729 1454.1 M964.729 1450.39 Q970.539 1450.39 973.595 1455 Q976.673 1459.58 976.673 1468.33 Q976.673 1477.06 973.595 1481.67 Q970.539 1486.25 964.729 1486.25 Q958.919 1486.25 955.84 1481.67 Q952.785 1477.06 952.785 1468.33 Q952.785 1459.58 955.84 1455 Q958.919 1450.39 964.729 1450.39 Z" fill="#000000" fill-rule="nonzero" fill-opacity="1" /><path clip-path="url(#clip730)" d="M984.891 1479.7 L989.775 1479.7 L989.775 1485.58 L984.891 1485.58 L984.891 1479.7 Z" fill="#000000" fill-rule="nonzero" fill-opacity="1" /><path clip-path="url(#clip730)" d="M1000.01 1451.02 L1018.36 1451.02 L1018.36 1454.96 L1004.29 1454.96 L1004.29 1463.43 Q1005.31 1463.08 1006.33 1462.92 Q1007.34 1462.73 1008.36 1462.73 Q1014.15 1462.73 1017.53 1465.9 Q1020.91 1469.08 1020.91 1474.49 Q1020.91 1480.07 1017.44 1483.17 Q1013.96 1486.25 1007.65 1486.25 Q1005.47 1486.25 1003.2 1485.88 Q1000.96 1485.51 998.548 1484.77 L998.548 1480.07 Q1000.63 1481.2 1002.85 1481.76 Q1005.08 1482.32 1007.55 1482.32 Q1011.56 1482.32 1013.9 1480.21 Q1016.23 1478.1 1016.23 1474.49 Q1016.23 1470.88 1013.9 1468.77 Q1011.56 1466.67 1007.55 1466.67 Q1005.68 1466.67 1003.8 1467.08 Q1001.95 1467.5 1000.01 1468.38 L1000.01 1451.02 Z" fill="#000000" fill-rule="nonzero" fill-opacity="1" /><path clip-path="url(#clip730)" d="M1259.14 1454.1 Q1255.52 1454.1 1253.7 1457.66 Q1251.89 1461.2 1251.89 1468.33 Q1251.89 1475.44 1253.7 1479.01 Q1255.52 1482.55 1259.14 1482.55 Q1262.77 1482.55 1264.58 1479.01 Q1266.4 1475.44 1266.4 1468.33 Q1266.4 1461.2 1264.58 1457.66 Q1262.77 1454.1 1259.14 1454.1 M1259.14 1450.39 Q1264.95 1450.39 1268 1455 Q1271.08 1459.58 1271.08 1468.33 Q1271.08 1477.06 1268 1481.67 Q1264.95 1486.25 1259.14 1486.25 Q1253.33 1486.25 1250.25 1481.67 Q1247.19 1477.06 1247.19 1468.33 Q1247.19 1459.58 1250.25 1455 Q1253.33 1450.39 1259.14 1450.39 Z" fill="#000000" fill-rule="nonzero" fill-opacity="1" /><path clip-path="url(#clip730)" d="M1279.3 1479.7 L1284.18 1479.7 L1284.18 1485.58 L1279.3 1485.58 L1279.3 1479.7 Z" fill="#000000" fill-rule="nonzero" fill-opacity="1" /><path clip-path="url(#clip730)" d="M1304.37 1454.1 Q1300.76 1454.1 1298.93 1457.66 Q1297.12 1461.2 1297.12 1468.33 Q1297.12 1475.44 1298.93 1479.01 Q1300.76 1482.55 1304.37 1482.55 Q1308 1482.55 1309.81 1479.01 Q1311.64 1475.44 1311.64 1468.33 Q1311.64 1461.2 1309.81 1457.66 Q1308 1454.1 1304.37 1454.1 M1304.37 1450.39 Q1310.18 1450.39 1313.23 1455 Q1316.31 1459.58 1316.31 1468.33 Q1316.31 1477.06 1313.23 1481.67 Q1310.18 1486.25 1304.37 1486.25 Q1298.56 1486.25 1295.48 1481.67 Q1292.42 1477.06 1292.42 1468.33 Q1292.42 1459.58 1295.48 1455 Q1298.56 1450.39 1304.37 1450.39 Z" fill="#000000" fill-rule="nonzero" fill-opacity="1" /><path clip-path="url(#clip730)" d="M1573.45 1454.1 Q1569.84 1454.1 1568.01 1457.66 Q1566.2 1461.2 1566.2 1468.33 Q1566.2 1475.44 1568.01 1479.01 Q1569.84 1482.55 1573.45 1482.55 Q1577.08 1482.55 1578.89 1479.01 Q1580.72 1475.44 1580.72 1468.33 Q1580.72 1461.2 1578.89 1457.66 Q1577.08 1454.1 1573.45 1454.1 M1573.45 1450.39 Q1579.26 1450.39 1582.31 1455 Q1585.39 1459.58 1585.39 1468.33 Q1585.39 1477.06 1582.31 1481.67 Q1579.26 1486.25 1573.45 1486.25 Q1567.64 1486.25 1564.56 1481.67 Q1561.5 1477.06 1561.5 1468.33 Q1561.5 1459.58 1564.56 1455 Q1567.64 1450.39 1573.45 1450.39 Z" fill="#000000" fill-rule="nonzero" fill-opacity="1" /><path clip-path="url(#clip730)" d="M1593.61 1479.7 L1598.5 1479.7 L1598.5 1485.58 L1593.61 1485.58 L1593.61 1479.7 Z" fill="#000000" fill-rule="nonzero" fill-opacity="1" /><path clip-path="url(#clip730)" d="M1608.73 1451.02 L1627.08 1451.02 L1627.08 1454.96 L1613.01 1454.96 L1613.01 1463.43 Q1614.03 1463.08 1615.05 1462.92 Q1616.06 1462.73 1617.08 1462.73 Q1622.87 1462.73 1626.25 1465.9 Q1629.63 1469.08 1629.63 1474.49 Q1629.63 1480.07 1626.16 1483.17 Q1622.68 1486.25 1616.37 1486.25 Q1614.19 1486.25 1611.92 1485.88 Q1609.68 1485.51 1607.27 1484.77 L1607.27 1480.07 Q1609.35 1481.2 1611.57 1481.76 Q1613.8 1482.32 1616.27 1482.32 Q1620.28 1482.32 1622.62 1480.21 Q1624.95 1478.1 1624.95 1474.49 Q1624.95 1470.88 1622.62 1468.77 Q1620.28 1466.67 1616.27 1466.67 Q1614.4 1466.67 1612.52 1467.08 Q1610.67 1467.5 1608.73 1468.38 L1608.73 1451.02 Z" fill="#000000" fill-rule="nonzero" fill-opacity="1" /><path clip-path="url(#clip730)" d="M1876.54 1481.64 L1884.17 1481.64 L1884.17 1455.28 L1875.86 1456.95 L1875.86 1452.69 L1884.13 1451.02 L1888.8 1451.02 L1888.8 1481.64 L1896.44 1481.64 L1896.44 1485.58 L1876.54 1485.58 L1876.54 1481.64 Z" fill="#000000" fill-rule="nonzero" fill-opacity="1" /><path clip-path="url(#clip730)" d="M1905.89 1479.7 L1910.77 1479.7 L1910.77 1485.58 L1905.89 1485.58 L1905.89 1479.7 Z" fill="#000000" fill-rule="nonzero" fill-opacity="1" /><path clip-path="url(#clip730)" d="M1930.96 1454.1 Q1927.35 1454.1 1925.52 1457.66 Q1923.71 1461.2 1923.71 1468.33 Q1923.71 1475.44 1925.52 1479.01 Q1927.35 1482.55 1930.96 1482.55 Q1934.59 1482.55 1936.4 1479.01 Q1938.23 1475.44 1938.23 1468.33 Q1938.23 1461.2 1936.4 1457.66 Q1934.59 1454.1 1930.96 1454.1 M1930.96 1450.39 Q1936.77 1450.39 1939.82 1455 Q1942.9 1459.58 1942.9 1468.33 Q1942.9 1477.06 1939.82 1481.67 Q1936.77 1486.25 1930.96 1486.25 Q1925.15 1486.25 1922.07 1481.67 Q1919.01 1477.06 1919.01 1468.33 Q1919.01 1459.58 1922.07 1455 Q1925.15 1450.39 1930.96 1450.39 Z" fill="#000000" fill-rule="nonzero" fill-opacity="1" /><path clip-path="url(#clip730)" d="M2190.85 1481.64 L2198.49 1481.64 L2198.49 1455.28 L2190.18 1456.95 L2190.18 1452.69 L2198.44 1451.02 L2203.12 1451.02 L2203.12 1481.64 L2210.76 1481.64 L2210.76 1485.58 L2190.85 1485.58 L2190.85 1481.64 Z" fill="#000000" fill-rule="nonzero" fill-opacity="1" /><path clip-path="url(#clip730)" d="M2220.2 1479.7 L2225.09 1479.7 L2225.09 1485.58 L2220.2 1485.58 L2220.2 1479.7 Z" fill="#000000" fill-rule="nonzero" fill-opacity="1" /><path clip-path="url(#clip730)" d="M2235.32 1451.02 L2253.67 1451.02 L2253.67 1454.96 L2239.6 1454.96 L2239.6 1463.43 Q2240.62 1463.08 2241.64 1462.92 Q2242.65 1462.73 2243.67 1462.73 Q2249.46 1462.73 2252.84 1465.9 Q2256.22 1469.08 2256.22 1474.49 Q2256.22 1480.07 2252.75 1483.17 Q2249.28 1486.25 2242.96 1486.25 Q2240.78 1486.25 2238.51 1485.88 Q2236.27 1485.51 2233.86 1484.77 L2233.86 1480.07 Q2235.94 1481.2 2238.16 1481.76 Q2240.39 1482.32 2242.86 1482.32 Q2246.87 1482.32 2249.21 1480.21 Q2251.54 1478.1 2251.54 1474.49 Q2251.54 1470.88 2249.21 1468.77 Q2246.87 1466.67 2242.86 1466.67 Q2240.99 1466.67 2239.11 1467.08 Q2237.26 1467.5 2235.32 1468.38 L2235.32 1451.02 Z" fill="#000000" fill-rule="nonzero" fill-opacity="1" /><path clip-path="url(#clip730)" d="M1036.99 1520.52 L1064.3 1520.52 L1064.3 1525.93 L1043.42 1525.93 L1043.42 1539.94 L1062.26 1539.94 L1062.26 1545.35 L1043.42 1545.35 L1043.42 1568.04 L1036.99 1568.04 L1036.99 1520.52 Z" fill="#000000" fill-rule="nonzero" fill-opacity="1" /><path clip-path="url(#clip730)" d="M1090.14 1537.87 Q1089.16 1537.3 1087.98 1537.04 Q1086.83 1536.76 1085.43 1536.76 Q1080.47 1536.76 1077.79 1540 Q1075.15 1543.22 1075.15 1549.27 L1075.15 1568.04 L1069.26 1568.04 L1069.26 1532.4 L1075.15 1532.4 L1075.15 1537.93 Q1077 1534.69 1079.96 1533.13 Q1082.92 1531.54 1087.15 1531.54 Q1087.76 1531.54 1088.49 1531.63 Q1089.22 1531.7 1090.11 1531.85 L1090.14 1537.87 Z" fill="#000000" fill-rule="nonzero" fill-opacity="1" /><path clip-path="url(#clip730)" d="M1108.67 1536.5 Q1103.96 1536.5 1101.22 1540.19 Q1098.48 1543.85 1098.48 1550.25 Q1098.48 1556.65 1101.19 1560.34 Q1103.92 1564 1108.67 1564 Q1113.35 1564 1116.08 1560.31 Q1118.82 1556.62 1118.82 1550.25 Q1118.82 1543.92 1116.08 1540.23 Q1113.35 1536.5 1108.67 1536.5 M1108.67 1531.54 Q1116.31 1531.54 1120.67 1536.5 Q1125.03 1541.47 1125.03 1550.25 Q1125.03 1559 1120.67 1564 Q1116.31 1568.97 1108.67 1568.97 Q1101 1568.97 1096.64 1564 Q1092.31 1559 1092.31 1550.25 Q1092.31 1541.47 1096.64 1536.5 Q1101 1531.54 1108.67 1531.54 Z" fill="#000000" fill-rule="nonzero" fill-opacity="1" /><path clip-path="url(#clip730)" d="M1134.13 1553.98 L1134.13 1532.4 L1139.99 1532.4 L1139.99 1553.75 Q1139.99 1558.81 1141.96 1561.36 Q1143.93 1563.87 1147.88 1563.87 Q1152.62 1563.87 1155.36 1560.85 Q1158.13 1557.83 1158.13 1552.61 L1158.13 1532.4 L1163.99 1532.4 L1163.99 1568.04 L1158.13 1568.04 L1158.13 1562.57 Q1156 1565.82 1153.16 1567.41 Q1150.36 1568.97 1146.64 1568.97 Q1140.5 1568.97 1137.31 1565.15 Q1134.13 1561.33 1134.13 1553.98 M1148.87 1531.54 L1148.87 1531.54 Z" fill="#000000" fill-rule="nonzero" fill-opacity="1" /><path clip-path="url(#clip730)" d="M1199.51 1537.81 L1199.51 1518.52 L1205.36 1518.52 L1205.36 1568.04 L1199.51 1568.04 L1199.51 1562.7 Q1197.66 1565.88 1194.83 1567.44 Q1192.03 1568.97 1188.08 1568.97 Q1181.62 1568.97 1177.54 1563.81 Q1173.5 1558.65 1173.5 1550.25 Q1173.5 1541.85 1177.54 1536.69 Q1181.62 1531.54 1188.08 1531.54 Q1192.03 1531.54 1194.83 1533.1 Q1197.66 1534.62 1199.51 1537.81 M1179.55 1550.25 Q1179.55 1556.71 1182.19 1560.4 Q1184.86 1564.07 1189.51 1564.07 Q1194.16 1564.07 1196.83 1560.4 Q1199.51 1556.71 1199.51 1550.25 Q1199.51 1543.79 1196.83 1540.13 Q1194.16 1536.44 1189.51 1536.44 Q1184.86 1536.44 1182.19 1540.13 Q1179.55 1543.79 1179.55 1550.25 Z" fill="#000000" fill-rule="nonzero" fill-opacity="1" /><path clip-path="url(#clip730)" d="M1247.92 1548.76 L1247.92 1551.62 L1220.99 1551.62 Q1221.37 1557.67 1224.62 1560.85 Q1227.9 1564 1233.72 1564 Q1237.1 1564 1240.25 1563.17 Q1243.43 1562.35 1246.55 1560.69 L1246.55 1566.23 Q1243.4 1567.57 1240.09 1568.27 Q1236.78 1568.97 1233.37 1568.97 Q1224.84 1568.97 1219.84 1564 Q1214.88 1559.04 1214.88 1550.57 Q1214.88 1541.82 1219.59 1536.69 Q1224.33 1531.54 1232.35 1531.54 Q1239.55 1531.54 1243.72 1536.18 Q1247.92 1540.8 1247.92 1548.76 M1242.06 1547.04 Q1242 1542.23 1239.36 1539.37 Q1236.75 1536.5 1232.42 1536.5 Q1227.52 1536.5 1224.56 1539.27 Q1221.63 1542.04 1221.18 1547.07 L1242.06 1547.04 Z" fill="#000000" fill-rule="nonzero" fill-opacity="1" /><path clip-path="url(#clip730)" d="M1307.88 1546.53 L1307.88 1568.04 L1302.03 1568.04 L1302.03 1546.72 Q1302.03 1541.66 1300.05 1539.14 Q1298.08 1536.63 1294.13 1536.63 Q1289.39 1536.63 1286.65 1539.65 Q1283.92 1542.68 1283.92 1547.9 L1283.92 1568.04 L1278.03 1568.04 L1278.03 1532.4 L1283.92 1532.4 L1283.92 1537.93 Q1286.02 1534.72 1288.85 1533.13 Q1291.71 1531.54 1295.44 1531.54 Q1301.58 1531.54 1304.73 1535.36 Q1307.88 1539.14 1307.88 1546.53 Z" fill="#000000" fill-rule="nonzero" fill-opacity="1" /><path clip-path="url(#clip730)" d="M1318.96 1553.98 L1318.96 1532.4 L1324.81 1532.4 L1324.81 1553.75 Q1324.81 1558.81 1326.79 1561.36 Q1328.76 1563.87 1332.71 1563.87 Q1337.45 1563.87 1340.19 1560.85 Q1342.96 1557.83 1342.96 1552.61 L1342.96 1532.4 L1348.81 1532.4 L1348.81 1568.04 L1342.96 1568.04 L1342.96 1562.57 Q1340.82 1565.82 1337.99 1567.41 Q1335.19 1568.97 1331.47 1568.97 Q1325.32 1568.97 1322.14 1565.15 Q1318.96 1561.33 1318.96 1553.98 M1333.7 1531.54 L1333.7 1531.54 Z" fill="#000000" fill-rule="nonzero" fill-opacity="1" /><path clip-path="url(#clip730)" d="M1388.63 1539.24 Q1390.83 1535.29 1393.88 1533.41 Q1396.94 1531.54 1401.08 1531.54 Q1406.65 1531.54 1409.67 1535.45 Q1412.69 1539.33 1412.69 1546.53 L1412.69 1568.04 L1406.81 1568.04 L1406.81 1546.72 Q1406.81 1541.59 1404.99 1539.11 Q1403.18 1536.63 1399.45 1536.63 Q1394.9 1536.63 1392.26 1539.65 Q1389.62 1542.68 1389.62 1547.9 L1389.62 1568.04 L1383.73 1568.04 L1383.73 1546.72 Q1383.73 1541.56 1381.92 1539.11 Q1380.1 1536.63 1376.31 1536.63 Q1371.83 1536.63 1369.18 1539.68 Q1366.54 1542.71 1366.54 1547.9 L1366.54 1568.04 L1360.65 1568.04 L1360.65 1532.4 L1366.54 1532.4 L1366.54 1537.93 Q1368.55 1534.66 1371.35 1533.1 Q1374.15 1531.54 1378 1531.54 Q1381.88 1531.54 1384.59 1533.51 Q1387.33 1535.48 1388.63 1539.24 Z" fill="#000000" fill-rule="nonzero" fill-opacity="1" /><path clip-path="url(#clip730)" d="M1449.96 1550.25 Q1449.96 1543.79 1447.29 1540.13 Q1444.65 1536.44 1440 1536.44 Q1435.36 1536.44 1432.68 1540.13 Q1430.04 1543.79 1430.04 1550.25 Q1430.04 1556.71 1432.68 1560.4 Q1435.36 1564.07 1440 1564.07 Q1444.65 1564.07 1447.29 1560.4 Q1449.96 1556.71 1449.96 1550.25 M1430.04 1537.81 Q1431.89 1534.62 1434.69 1533.1 Q1437.52 1531.54 1441.43 1531.54 Q1447.93 1531.54 1451.97 1536.69 Q1456.04 1541.85 1456.04 1550.25 Q1456.04 1558.65 1451.97 1563.81 Q1447.93 1568.97 1441.43 1568.97 Q1437.52 1568.97 1434.69 1567.44 Q1431.89 1565.88 1430.04 1562.7 L1430.04 1568.04 L1424.15 1568.04 L1424.15 1518.52 L1430.04 1518.52 L1430.04 1537.81 Z" fill="#000000" fill-rule="nonzero" fill-opacity="1" /><path clip-path="url(#clip730)" d="M1496.24 1548.76 L1496.24 1551.62 L1469.32 1551.62 Q1469.7 1557.67 1472.94 1560.85 Q1476.22 1564 1482.05 1564 Q1485.42 1564 1488.57 1563.17 Q1491.76 1562.35 1494.87 1560.69 L1494.87 1566.23 Q1491.72 1567.57 1488.41 1568.27 Q1485.1 1568.97 1481.7 1568.97 Q1473.17 1568.97 1468.17 1564 Q1463.21 1559.04 1463.21 1550.57 Q1463.21 1541.82 1467.92 1536.69 Q1472.66 1531.54 1480.68 1531.54 Q1487.87 1531.54 1492.04 1536.18 Q1496.24 1540.8 1496.24 1548.76 M1490.39 1547.04 Q1490.32 1542.23 1487.68 1539.37 Q1485.07 1536.5 1480.74 1536.5 Q1475.84 1536.5 1472.88 1539.27 Q1469.95 1542.04 1469.51 1547.07 L1490.39 1547.04 Z" fill="#000000" fill-rule="nonzero" fill-opacity="1" /><path clip-path="url(#clip730)" d="M1526.51 1537.87 Q1525.53 1537.3 1524.35 1537.04 Q1523.2 1536.76 1521.8 1536.76 Q1516.84 1536.76 1514.16 1540 Q1511.52 1543.22 1511.52 1549.27 L1511.52 1568.04 L1505.63 1568.04 L1505.63 1532.4 L1511.52 1532.4 L1511.52 1537.93 Q1513.37 1534.69 1516.33 1533.13 Q1519.29 1531.54 1523.52 1531.54 Q1524.13 1531.54 1524.86 1531.63 Q1525.59 1531.7 1526.48 1531.85 L1526.51 1537.87 Z" fill="#000000" fill-rule="nonzero" fill-opacity="1" /><polyline clip-path="url(#clip730)" style="stroke:#000000; stroke-linecap:round; stroke-linejoin:round; stroke-width:4; stroke-opacity:1; fill:none" points="210.746,1423.18 210.746,123.472 "/>
<polyline clip-path="url(#clip730)" style="stroke:#000000; stroke-linecap:round; stroke-linejoin:round; stroke-width:4; stroke-opacity:1; fill:none" points="210.746,1386.4 229.644,1386.4 "/>
<polyline clip-path="url(#clip730)" style="stroke:#000000; stroke-linecap:round; stroke-linejoin:round; stroke-width:4; stroke-opacity:1; fill:none" points="210.746,1079.86 229.644,1079.86 "/>
<polyline clip-path="url(#clip730)" style="stroke:#000000; stroke-linecap:round; stroke-linejoin:round; stroke-width:4; stroke-opacity:1; fill:none" points="210.746,773.326 229.644,773.326 "/>
<polyline clip-path="url(#clip730)" style="stroke:#000000; stroke-linecap:round; stroke-linejoin:round; stroke-width:4; stroke-opacity:1; fill:none" points="210.746,466.791 229.644,466.791 "/>
<polyline clip-path="url(#clip730)" style="stroke:#000000; stroke-linecap:round; stroke-linejoin:round; stroke-width:4; stroke-opacity:1; fill:none" points="210.746,160.256 229.644,160.256 "/>
<path clip-path="url(#clip730)" d="M114.631 1386.85 L144.306 1386.85 L144.306 1390.78 L114.631 1390.78 L114.631 1386.85 Z" fill="#000000" fill-rule="nonzero" fill-opacity="1" /><path clip-path="url(#clip730)" d="M158.427 1399.74 L174.746 1399.74 L174.746 1403.68 L152.802 1403.68 L152.802 1399.74 Q155.464 1396.99 160.047 1392.36 Q164.653 1387.7 165.834 1386.36 Q168.079 1383.84 168.959 1382.1 Q169.862 1380.34 169.862 1378.65 Q169.862 1375.9 167.917 1374.16 Q165.996 1372.43 162.894 1372.43 Q160.695 1372.43 158.241 1373.19 Q155.811 1373.95 153.033 1375.5 L153.033 1370.78 Q155.857 1369.65 158.311 1369.07 Q160.765 1368.49 162.802 1368.49 Q168.172 1368.49 171.366 1371.18 Q174.561 1373.86 174.561 1378.35 Q174.561 1380.48 173.751 1382.4 Q172.964 1384.3 170.857 1386.89 Q170.278 1387.56 167.177 1390.78 Q164.075 1393.98 158.427 1399.74 Z" fill="#000000" fill-rule="nonzero" fill-opacity="1" /><path clip-path="url(#clip730)" d="M114.26 1080.31 L143.936 1080.31 L143.936 1084.25 L114.26 1084.25 L114.26 1080.31 Z" fill="#000000" fill-rule="nonzero" fill-opacity="1" /><path clip-path="url(#clip730)" d="M154.839 1093.21 L162.477 1093.21 L162.477 1066.84 L154.167 1068.51 L154.167 1064.25 L162.431 1062.58 L167.107 1062.58 L167.107 1093.21 L174.746 1093.21 L174.746 1097.14 L154.839 1097.14 L154.839 1093.21 Z" fill="#000000" fill-rule="nonzero" fill-opacity="1" /><path clip-path="url(#clip730)" d="M162.802 759.125 Q159.19 759.125 157.362 762.689 Q155.556 766.231 155.556 773.361 Q155.556 780.467 157.362 784.032 Q159.19 787.574 162.802 787.574 Q166.436 787.574 168.241 784.032 Q170.07 780.467 170.07 773.361 Q170.07 766.231 168.241 762.689 Q166.436 759.125 162.802 759.125 M162.802 755.421 Q168.612 755.421 171.667 760.027 Q174.746 764.611 174.746 773.361 Q174.746 782.088 171.667 786.694 Q168.612 791.277 162.802 791.277 Q156.991 791.277 153.913 786.694 Q150.857 782.088 150.857 773.361 Q150.857 764.611 153.913 760.027 Q156.991 755.421 162.802 755.421 Z" fill="#000000" fill-rule="nonzero" fill-opacity="1" /><path clip-path="url(#clip730)" d="M154.839 480.136 L162.477 480.136 L162.477 453.77 L154.167 455.437 L154.167 451.178 L162.431 449.511 L167.107 449.511 L167.107 480.136 L174.746 480.136 L174.746 484.071 L154.839 484.071 L154.839 480.136 Z" fill="#000000" fill-rule="nonzero" fill-opacity="1" /><path clip-path="url(#clip730)" d="M158.427 173.601 L174.746 173.601 L174.746 177.536 L152.802 177.536 L152.802 173.601 Q155.464 170.847 160.047 166.217 Q164.653 161.564 165.834 160.222 Q168.079 157.698 168.959 155.962 Q169.862 154.203 169.862 152.513 Q169.862 149.759 167.917 148.023 Q165.996 146.286 162.894 146.286 Q160.695 146.286 158.241 147.05 Q155.811 147.814 153.033 149.365 L153.033 144.643 Q155.857 143.509 158.311 142.93 Q160.765 142.351 162.802 142.351 Q168.172 142.351 171.366 145.036 Q174.561 147.722 174.561 152.212 Q174.561 154.342 173.751 156.263 Q172.964 158.161 170.857 160.754 Q170.278 161.425 167.177 164.643 Q164.075 167.837 158.427 173.601 Z" fill="#000000" fill-rule="nonzero" fill-opacity="1" /><path clip-path="url(#clip730)" d="M18.0438 1145.37 L24.314 1145.37 Q22.5634 1149.03 21.704 1152.28 Q20.8447 1155.52 20.8447 1158.55 Q20.8447 1163.8 22.8817 1166.66 Q24.9187 1169.5 28.6745 1169.5 Q31.8255 1169.5 33.4488 1167.62 Q35.0402 1165.71 36.0269 1160.42 L36.8226 1156.54 Q38.1912 1149.35 41.6605 1145.94 Q45.098 1142.51 50.8908 1142.51 Q57.7976 1142.51 61.3624 1147.15 Q64.9272 1151.77 64.9272 1160.71 Q64.9272 1164.08 64.1633 1167.9 Q63.3994 1171.69 61.9035 1175.77 L55.2831 1175.77 Q57.4793 1171.85 58.5933 1168.1 Q59.7073 1164.34 59.7073 1160.71 Q59.7073 1155.2 57.543 1152.21 Q55.3786 1149.22 51.3682 1149.22 Q47.8671 1149.22 45.8937 1151.39 Q43.9204 1153.52 42.9337 1158.42 L42.1698 1162.33 Q40.7375 1169.53 37.682 1172.74 Q34.6264 1175.96 29.1837 1175.96 Q22.8817 1175.96 19.2532 1171.53 Q15.6248 1167.08 15.6248 1159.28 Q15.6248 1155.94 16.2295 1152.47 Q16.8343 1149 18.0438 1145.37 Z" fill="#000000" fill-rule="nonzero" fill-opacity="1" /><path clip-path="url(#clip730)" d="M18.2347 1126.94 L28.3562 1126.94 L28.3562 1114.88 L32.9077 1114.88 L32.9077 1126.94 L52.2594 1126.94 Q56.6199 1126.94 57.8613 1125.76 Q59.1026 1124.55 59.1026 1120.89 L59.1026 1114.88 L64.0042 1114.88 L64.0042 1120.89 Q64.0042 1127.67 61.4897 1130.25 Q58.9434 1132.83 52.2594 1132.83 L32.9077 1132.83 L32.9077 1137.13 L28.3562 1137.13 L28.3562 1132.83 L18.2347 1132.83 L18.2347 1126.94 Z" fill="#000000" fill-rule="nonzero" fill-opacity="1" /><path clip-path="url(#clip730)" d="M46.0847 1090.97 Q46.0847 1098.07 47.7079 1100.81 Q49.3312 1103.55 53.2461 1103.55 Q56.3653 1103.55 58.2114 1101.51 Q60.0256 1099.44 60.0256 1095.91 Q60.0256 1091.04 56.5881 1088.11 Q53.1188 1085.15 47.3897 1085.15 L46.0847 1085.15 L46.0847 1090.97 M43.6657 1079.29 L64.0042 1079.29 L64.0042 1085.15 L58.5933 1085.15 Q61.8398 1087.16 63.3994 1090.15 Q64.9272 1093.14 64.9272 1097.47 Q64.9272 1102.94 61.8716 1106.19 Q58.7843 1109.4 53.6281 1109.4 Q47.6125 1109.4 44.5569 1105.39 Q41.5014 1101.35 41.5014 1093.36 L41.5014 1085.15 L40.9285 1085.15 Q36.8862 1085.15 34.6901 1087.82 Q32.4621 1090.47 32.4621 1095.27 Q32.4621 1098.33 33.1941 1101.22 Q33.9262 1104.12 35.3903 1106.79 L29.9795 1106.79 Q28.7381 1103.58 28.1334 1100.56 Q27.4968 1097.53 27.4968 1094.67 Q27.4968 1086.93 31.5072 1083.11 Q35.5176 1079.29 43.6657 1079.29 Z" fill="#000000" fill-rule="nonzero" fill-opacity="1" /><path clip-path="url(#clip730)" d="M42.4881 1037.6 L64.0042 1037.6 L64.0042 1043.45 L42.679 1043.45 Q37.6183 1043.45 35.1038 1045.43 Q32.5894 1047.4 32.5894 1051.35 Q32.5894 1056.09 35.6131 1058.83 Q38.6368 1061.57 43.8567 1061.57 L64.0042 1061.57 L64.0042 1067.45 L28.3562 1067.45 L28.3562 1061.57 L33.8944 1061.57 Q30.6797 1059.46 29.0883 1056.63 Q27.4968 1053.77 27.4968 1050.04 Q27.4968 1043.9 31.3163 1040.75 Q35.1038 1037.6 42.4881 1037.6 Z" fill="#000000" fill-rule="nonzero" fill-opacity="1" /><path clip-path="url(#clip730)" d="M33.7671 1002.46 L14.479 1002.46 L14.479 996.603 L64.0042 996.603 L64.0042 1002.46 L58.657 1002.46 Q61.8398 1004.31 63.3994 1007.14 Q64.9272 1009.94 64.9272 1013.89 Q64.9272 1020.35 59.771 1024.42 Q54.6147 1028.46 46.212 1028.46 Q37.8093 1028.46 32.6531 1024.42 Q27.4968 1020.35 27.4968 1013.89 Q27.4968 1009.94 29.0564 1007.14 Q30.5842 1004.31 33.7671 1002.46 M46.212 1022.42 Q52.6732 1022.42 56.3653 1019.77 Q60.0256 1017.1 60.0256 1012.45 Q60.0256 1007.81 56.3653 1005.13 Q52.6732 1002.46 46.212 1002.46 Q39.7508 1002.46 36.0905 1005.13 Q32.3984 1007.81 32.3984 1012.45 Q32.3984 1017.1 36.0905 1019.77 Q39.7508 1022.42 46.212 1022.42 Z" fill="#000000" fill-rule="nonzero" fill-opacity="1" /><path clip-path="url(#clip730)" d="M46.0847 968.339 Q46.0847 975.437 47.7079 978.174 Q49.3312 980.912 53.2461 980.912 Q56.3653 980.912 58.2114 978.875 Q60.0256 976.806 60.0256 973.273 Q60.0256 968.403 56.5881 965.475 Q53.1188 962.515 47.3897 962.515 L46.0847 962.515 L46.0847 968.339 M43.6657 956.658 L64.0042 956.658 L64.0042 962.515 L58.5933 962.515 Q61.8398 964.52 63.3994 967.512 Q64.9272 970.504 64.9272 974.832 Q64.9272 980.307 61.8716 983.553 Q58.7843 986.768 53.6281 986.768 Q47.6125 986.768 44.5569 982.758 Q41.5014 978.716 41.5014 970.727 L41.5014 962.515 L40.9285 962.515 Q36.8862 962.515 34.6901 965.188 Q32.4621 967.83 32.4621 972.636 Q32.4621 975.692 33.1941 978.588 Q33.9262 981.485 35.3903 984.158 L29.9795 984.158 Q28.7381 980.944 28.1334 977.92 Q27.4968 974.896 27.4968 972.032 Q27.4968 964.297 31.5072 960.478 Q35.5176 956.658 43.6657 956.658 Z" fill="#000000" fill-rule="nonzero" fill-opacity="1" /><path clip-path="url(#clip730)" d="M33.8307 923.939 Q33.2578 924.925 33.0032 926.103 Q32.7167 927.249 32.7167 928.649 Q32.7167 933.614 35.9632 936.288 Q39.1779 938.93 45.2253 938.93 L64.0042 938.93 L64.0042 944.818 L28.3562 944.818 L28.3562 938.93 L33.8944 938.93 Q30.6479 937.084 29.0883 934.124 Q27.4968 931.164 27.4968 926.93 Q27.4968 926.326 27.5923 925.594 Q27.656 924.862 27.8151 923.97 L33.8307 923.939 Z" fill="#000000" fill-rule="nonzero" fill-opacity="1" /><path clip-path="url(#clip730)" d="M33.7671 895.484 L14.479 895.484 L14.479 889.627 L64.0042 889.627 L64.0042 895.484 L58.657 895.484 Q61.8398 897.33 63.3994 900.163 Q64.9272 902.964 64.9272 906.91 Q64.9272 913.372 59.771 917.446 Q54.6147 921.488 46.212 921.488 Q37.8093 921.488 32.6531 917.446 Q27.4968 913.372 27.4968 906.91 Q27.4968 902.964 29.0564 900.163 Q30.5842 897.33 33.7671 895.484 M46.212 915.44 Q52.6732 915.44 56.3653 912.799 Q60.0256 910.125 60.0256 905.478 Q60.0256 900.831 56.3653 898.157 Q52.6732 895.484 46.212 895.484 Q39.7508 895.484 36.0905 898.157 Q32.3984 900.831 32.3984 905.478 Q32.3984 910.125 36.0905 912.799 Q39.7508 915.44 46.212 915.44 Z" fill="#000000" fill-rule="nonzero" fill-opacity="1" /><path clip-path="url(#clip730)" d="M28.3562 877.564 L28.3562 871.708 L64.0042 871.708 L64.0042 877.564 L28.3562 877.564 M14.479 877.564 L14.479 871.708 L21.895 871.708 L21.895 877.564 L14.479 877.564 Z" fill="#000000" fill-rule="nonzero" fill-opacity="1" /><path clip-path="url(#clip730)" d="M28.3562 862 L28.3562 834.182 L33.7034 834.182 L59.3254 856.207 L59.3254 834.182 L64.0042 834.182 L64.0042 862.796 L58.657 862.796 L33.035 840.771 L33.035 862 L28.3562 862 Z" fill="#000000" fill-rule="nonzero" fill-opacity="1" /><path clip-path="url(#clip730)" d="M44.7161 794.747 L47.5806 794.747 L47.5806 821.674 Q53.6281 821.292 56.8109 818.045 Q59.9619 814.767 59.9619 808.942 Q59.9619 805.568 59.1344 802.417 Q58.3069 799.234 56.6518 796.115 L62.1899 796.115 Q63.5267 799.266 64.227 802.576 Q64.9272 805.887 64.9272 809.292 Q64.9272 817.822 59.9619 822.819 Q54.9967 827.785 46.5303 827.785 Q37.7774 827.785 32.6531 823.074 Q27.4968 818.332 27.4968 810.311 Q27.4968 803.117 32.1438 798.948 Q36.7589 794.747 44.7161 794.747 M42.9973 800.603 Q38.1912 800.667 35.3266 803.308 Q32.4621 805.918 32.4621 810.247 Q32.4621 815.149 35.2312 818.109 Q38.0002 821.037 43.0292 821.483 L42.9973 800.603 Z" fill="#000000" fill-rule="nonzero" fill-opacity="1" /><path clip-path="url(#clip730)" d="M33.7671 761.677 L14.479 761.677 L14.479 755.82 L64.0042 755.82 L64.0042 761.677 L58.657 761.677 Q61.8398 763.523 63.3994 766.356 Q64.9272 769.156 64.9272 773.103 Q64.9272 779.564 59.771 783.638 Q54.6147 787.681 46.212 787.681 Q37.8093 787.681 32.6531 783.638 Q27.4968 779.564 27.4968 773.103 Q27.4968 769.156 29.0564 766.356 Q30.5842 763.523 33.7671 761.677 M46.212 781.633 Q52.6732 781.633 56.3653 778.991 Q60.0256 776.318 60.0256 771.671 Q60.0256 767.024 56.3653 764.35 Q52.6732 761.677 46.212 761.677 Q39.7508 761.677 36.0905 764.35 Q32.3984 767.024 32.3984 771.671 Q32.3984 776.318 36.0905 778.991 Q39.7508 781.633 46.212 781.633 Z" fill="#000000" fill-rule="nonzero" fill-opacity="1" /><path clip-path="url(#clip730)" d="M33.8307 702.38 Q33.2578 703.367 33.0032 704.545 Q32.7167 705.69 32.7167 707.091 Q32.7167 712.056 35.9632 714.73 Q39.1779 717.371 45.2253 717.371 L64.0042 717.371 L64.0042 723.26 L28.3562 723.26 L28.3562 717.371 L33.8944 717.371 Q30.6479 715.525 29.0883 712.565 Q27.4968 709.605 27.4968 705.372 Q27.4968 704.767 27.5923 704.035 Q27.656 703.303 27.8151 702.412 L33.8307 702.38 Z" fill="#000000" fill-rule="nonzero" fill-opacity="1" /><path clip-path="url(#clip730)" d="M44.7161 667.178 L47.5806 667.178 L47.5806 694.105 Q53.6281 693.723 56.8109 690.476 Q59.9619 687.198 59.9619 681.373 Q59.9619 678 59.1344 674.849 Q58.3069 671.666 56.6518 668.546 L62.1899 668.546 Q63.5267 671.697 64.227 675.008 Q64.9272 678.318 64.9272 681.723 Q64.9272 690.254 59.9619 695.251 Q54.9967 700.216 46.5303 700.216 Q37.7774 700.216 32.6531 695.505 Q27.4968 690.763 27.4968 682.742 Q27.4968 675.549 32.1438 671.379 Q36.7589 667.178 44.7161 667.178 M42.9973 673.034 Q38.1912 673.098 35.3266 675.74 Q32.4621 678.35 32.4621 682.678 Q32.4621 687.58 35.2312 690.54 Q38.0002 693.468 43.0292 693.914 L42.9973 673.034 Z" fill="#000000" fill-rule="nonzero" fill-opacity="1" /><path clip-path="url(#clip730)" d="M29.4065 634.84 L34.9447 634.84 Q33.6716 637.323 33.035 639.996 Q32.3984 642.67 32.3984 645.534 Q32.3984 649.895 33.7352 652.091 Q35.072 654.255 37.7456 654.255 Q39.7826 654.255 40.9603 652.696 Q42.1061 651.136 43.1565 646.426 L43.6021 644.42 Q44.9389 638.182 47.3897 635.572 Q49.8086 632.93 54.1691 632.93 Q59.1344 632.93 62.0308 636.877 Q64.9272 640.792 64.9272 647.667 Q64.9272 650.532 64.3543 653.651 Q63.8132 656.738 62.6992 660.176 L56.6518 660.176 Q58.3387 656.929 59.198 653.778 Q60.0256 650.627 60.0256 647.54 Q60.0256 643.402 58.6251 641.174 Q57.1929 638.946 54.6147 638.946 Q52.2276 638.946 50.9545 640.569 Q49.6813 642.161 48.5037 647.603 L48.0262 649.64 Q46.8804 655.083 44.5251 657.502 Q42.138 659.921 38.0002 659.921 Q32.9713 659.921 30.2341 656.356 Q27.4968 652.791 27.4968 646.235 Q27.4968 642.988 27.9743 640.124 Q28.4517 637.259 29.4065 634.84 Z" fill="#000000" fill-rule="nonzero" fill-opacity="1" /><path clip-path="url(#clip730)" d="M28.3562 623.605 L28.3562 617.748 L64.0042 617.748 L64.0042 623.605 L28.3562 623.605 M14.479 623.605 L14.479 617.748 L21.895 617.748 L21.895 623.605 L14.479 623.605 Z" fill="#000000" fill-rule="nonzero" fill-opacity="1" /><path clip-path="url(#clip730)" d="M33.7671 582.036 L14.479 582.036 L14.479 576.18 L64.0042 576.18 L64.0042 582.036 L58.657 582.036 Q61.8398 583.883 63.3994 586.715 Q64.9272 589.516 64.9272 593.463 Q64.9272 599.924 59.771 603.998 Q54.6147 608.04 46.212 608.04 Q37.8093 608.04 32.6531 603.998 Q27.4968 599.924 27.4968 593.463 Q27.4968 589.516 29.0564 586.715 Q30.5842 583.883 33.7671 582.036 M46.212 601.993 Q52.6732 601.993 56.3653 599.351 Q60.0256 596.678 60.0256 592.031 Q60.0256 587.384 56.3653 584.71 Q52.6732 582.036 46.212 582.036 Q39.7508 582.036 36.0905 584.71 Q32.3984 587.384 32.3984 592.031 Q32.3984 596.678 36.0905 599.351 Q39.7508 601.993 46.212 601.993 Z" fill="#000000" fill-rule="nonzero" fill-opacity="1" /><path clip-path="url(#clip730)" d="M49.9359 564.722 L28.3562 564.722 L28.3562 558.865 L49.7131 558.865 Q54.7739 558.865 57.3202 556.892 Q59.8346 554.919 59.8346 550.972 Q59.8346 546.229 56.8109 543.492 Q53.7872 540.723 48.5673 540.723 L28.3562 540.723 L28.3562 534.867 L64.0042 534.867 L64.0042 540.723 L58.5296 540.723 Q61.7762 542.856 63.3676 545.688 Q64.9272 548.489 64.9272 552.213 Q64.9272 558.356 61.1078 561.539 Q57.2883 564.722 49.9359 564.722 M27.4968 549.985 L27.4968 549.985 Z" fill="#000000" fill-rule="nonzero" fill-opacity="1" /><path clip-path="url(#clip730)" d="M46.0847 506.603 Q46.0847 513.701 47.7079 516.438 Q49.3312 519.175 53.2461 519.175 Q56.3653 519.175 58.2114 517.138 Q60.0256 515.069 60.0256 511.536 Q60.0256 506.667 56.5881 503.738 Q53.1188 500.778 47.3897 500.778 L46.0847 500.778 L46.0847 506.603 M43.6657 494.922 L64.0042 494.922 L64.0042 500.778 L58.5933 500.778 Q61.8398 502.783 63.3994 505.775 Q64.9272 508.767 64.9272 513.096 Q64.9272 518.57 61.8716 521.817 Q58.7843 525.032 53.6281 525.032 Q47.6125 525.032 44.5569 521.021 Q41.5014 516.979 41.5014 508.99 L41.5014 500.778 L40.9285 500.778 Q36.8862 500.778 34.6901 503.452 Q32.4621 506.094 32.4621 510.9 Q32.4621 513.955 33.1941 516.852 Q33.9262 519.748 35.3903 522.422 L29.9795 522.422 Q28.7381 519.207 28.1334 516.183 Q27.4968 513.16 27.4968 510.295 Q27.4968 502.561 31.5072 498.741 Q35.5176 494.922 43.6657 494.922 Z" fill="#000000" fill-rule="nonzero" fill-opacity="1" /><path clip-path="url(#clip730)" d="M14.479 482.859 L14.479 477.002 L64.0042 477.002 L64.0042 482.859 L14.479 482.859 Z" fill="#000000" fill-rule="nonzero" fill-opacity="1" /><path clip-path="url(#clip730)" d="M14.5426 429.96 Q21.8632 434.225 29.0246 436.294 Q36.186 438.363 43.5384 438.363 Q50.8908 438.363 58.1159 436.294 Q65.3091 434.193 72.5979 429.96 L72.5979 435.052 Q65.1182 439.827 57.8931 442.214 Q50.668 444.569 43.5384 444.569 Q36.4406 444.569 29.2474 442.214 Q22.0542 439.858 14.5426 435.052 L14.5426 429.96 Z" fill="#000000" fill-rule="nonzero" fill-opacity="1" /><path clip-path="url(#clip730)" d="M28.3562 421.143 L28.3562 393.325 L33.7034 393.325 L59.3254 415.35 L59.3254 393.325 L64.0042 393.325 L64.0042 421.939 L58.657 421.939 L33.035 399.914 L33.035 421.143 L28.3562 421.143 Z" fill="#000000" fill-rule="nonzero" fill-opacity="1" /><path clip-path="url(#clip730)" d="M14.5426 385.304 L14.5426 380.212 Q22.0542 375.437 29.2474 373.082 Q36.4406 370.695 43.5384 370.695 Q50.668 370.695 57.8931 373.082 Q65.1182 375.437 72.5979 380.212 L72.5979 385.304 Q65.3091 381.071 58.1159 379.002 Q50.8908 376.902 43.5384 376.902 Q36.186 376.902 29.0246 379.002 Q21.8632 381.071 14.5426 385.304 Z" fill="#000000" fill-rule="nonzero" fill-opacity="1" /><path clip-path="url(#clip730)" d="M374.247 16.7545 L374.247 25.383 Q370.115 21.5346 365.416 19.6307 Q360.758 17.7268 355.491 17.7268 Q345.121 17.7268 339.612 24.0867 Q334.103 30.4061 334.103 42.3968 Q334.103 54.3469 339.612 60.7069 Q345.121 67.0263 355.491 67.0263 Q360.758 67.0263 365.416 65.1223 Q370.115 63.2184 374.247 59.3701 L374.247 67.9175 Q369.953 70.8341 365.133 72.2924 Q360.353 73.7508 355.005 73.7508 Q341.273 73.7508 333.373 65.3654 Q325.474 56.9395 325.474 42.3968 Q325.474 27.8135 333.373 19.4281 Q341.273 11.0023 355.005 11.0023 Q360.434 11.0023 365.214 12.4606 Q370.034 13.8784 374.247 16.7545 Z" fill="#000000" fill-rule="nonzero" fill-opacity="1" /><path clip-path="url(#clip730)" d="M407.181 49.7694 Q398.147 49.7694 394.664 51.8354 Q391.18 53.9013 391.18 58.8839 Q391.18 62.8538 393.772 65.2034 Q396.406 67.5124 400.902 67.5124 Q407.1 67.5124 410.827 63.1374 Q414.594 58.7219 414.594 51.4303 L414.594 49.7694 L407.181 49.7694 M422.048 46.6907 L422.048 72.576 L414.594 72.576 L414.594 65.6895 Q412.042 69.8214 408.234 71.8063 Q404.426 73.7508 398.917 73.7508 Q391.95 73.7508 387.818 69.8619 Q383.726 65.9325 383.726 59.3701 Q383.726 51.7138 388.83 47.825 Q393.975 43.9361 404.143 43.9361 L414.594 43.9361 L414.594 43.2069 Q414.594 38.0623 411.191 35.2672 Q407.829 32.4315 401.712 32.4315 Q397.823 32.4315 394.137 33.3632 Q390.451 34.295 387.048 36.1584 L387.048 29.2718 Q391.139 27.692 394.988 26.9223 Q398.836 26.1121 402.482 26.1121 Q412.326 26.1121 417.187 31.2163 Q422.048 36.3204 422.048 46.6907 Z" fill="#000000" fill-rule="nonzero" fill-opacity="1" /><path clip-path="url(#clip730)" d="M437.401 9.54393 L444.854 9.54393 L444.854 72.576 L437.401 72.576 L437.401 9.54393 Z" fill="#000000" fill-rule="nonzero" fill-opacity="1" /><path clip-path="url(#clip730)" d="M460.45 27.2059 L467.904 27.2059 L467.904 72.576 L460.45 72.576 L460.45 27.2059 M460.45 9.54393 L467.904 9.54393 L467.904 18.9825 L460.45 18.9825 L460.45 9.54393 Z" fill="#000000" fill-rule="nonzero" fill-opacity="1" /><path clip-path="url(#clip730)" d="M516.069 49.9314 Q516.069 41.7081 512.667 37.0496 Q509.304 32.3505 503.39 32.3505 Q497.476 32.3505 494.073 37.0496 Q490.711 41.7081 490.711 49.9314 Q490.711 58.1548 494.073 62.8538 Q497.476 67.5124 503.39 67.5124 Q509.304 67.5124 512.667 62.8538 Q516.069 58.1548 516.069 49.9314 M490.711 34.0924 Q493.06 30.0415 496.625 28.0971 Q500.23 26.1121 505.213 26.1121 Q513.477 26.1121 518.621 32.6746 Q523.806 39.2371 523.806 49.9314 Q523.806 60.6258 518.621 67.1883 Q513.477 73.7508 505.213 73.7508 Q500.23 73.7508 496.625 71.8063 Q493.06 69.8214 490.711 65.7705 L490.711 72.576 L483.216 72.576 L483.216 9.54393 L490.711 9.54393 L490.711 34.0924 Z" fill="#000000" fill-rule="nonzero" fill-opacity="1" /><path clip-path="url(#clip730)" d="M562.452 34.1734 Q561.196 33.4443 559.698 33.1202 Q558.239 32.7556 556.457 32.7556 Q550.137 32.7556 546.735 36.8875 Q543.372 40.9789 543.372 48.6757 L543.372 72.576 L535.878 72.576 L535.878 27.2059 L543.372 27.2059 L543.372 34.2544 Q545.722 30.1225 549.489 28.1376 Q553.257 26.1121 558.644 26.1121 Q559.414 26.1121 560.346 26.2337 Q561.277 26.3147 562.412 26.5172 L562.452 34.1734 Z" fill="#000000" fill-rule="nonzero" fill-opacity="1" /><path clip-path="url(#clip730)" d="M590.889 49.7694 Q581.856 49.7694 578.372 51.8354 Q574.888 53.9013 574.888 58.8839 Q574.888 62.8538 577.481 65.2034 Q580.114 67.5124 584.611 67.5124 Q590.808 67.5124 594.535 63.1374 Q598.303 58.7219 598.303 51.4303 L598.303 49.7694 L590.889 49.7694 M605.756 46.6907 L605.756 72.576 L598.303 72.576 L598.303 65.6895 Q595.751 69.8214 591.943 71.8063 Q588.135 73.7508 582.626 73.7508 Q575.658 73.7508 571.526 69.8619 Q567.435 65.9325 567.435 59.3701 Q567.435 51.7138 572.539 47.825 Q577.684 43.9361 587.851 43.9361 L598.303 43.9361 L598.303 43.2069 Q598.303 38.0623 594.9 35.2672 Q591.538 32.4315 585.421 32.4315 Q581.532 32.4315 577.846 33.3632 Q574.159 34.295 570.756 36.1584 L570.756 29.2718 Q574.848 27.692 578.696 26.9223 Q582.545 26.1121 586.19 26.1121 Q596.034 26.1121 600.895 31.2163 Q605.756 36.3204 605.756 46.6907 Z" fill="#000000" fill-rule="nonzero" fill-opacity="1" /><path clip-path="url(#clip730)" d="M628.482 14.324 L628.482 27.2059 L643.835 27.2059 L643.835 32.9987 L628.482 32.9987 L628.482 57.6282 Q628.482 63.1779 629.981 64.7578 Q631.52 66.3376 636.179 66.3376 L643.835 66.3376 L643.835 72.576 L636.179 72.576 Q627.55 72.576 624.269 69.3758 Q620.988 66.1351 620.988 57.6282 L620.988 32.9987 L615.519 32.9987 L615.519 27.2059 L620.988 27.2059 L620.988 14.324 L628.482 14.324 Z" fill="#000000" fill-rule="nonzero" fill-opacity="1" /><path clip-path="url(#clip730)" d="M653.638 27.2059 L661.092 27.2059 L661.092 72.576 L653.638 72.576 L653.638 27.2059 M653.638 9.54393 L661.092 9.54393 L661.092 18.9825 L653.638 18.9825 L653.638 9.54393 Z" fill="#000000" fill-rule="nonzero" fill-opacity="1" /><path clip-path="url(#clip730)" d="M694.269 32.4315 Q688.273 32.4315 684.789 37.1306 Q681.306 41.7891 681.306 49.9314 Q681.306 58.0738 684.749 62.7728 Q688.233 67.4314 694.269 67.4314 Q700.223 67.4314 703.707 62.7323 Q707.191 58.0333 707.191 49.9314 Q707.191 41.8701 703.707 37.1711 Q700.223 32.4315 694.269 32.4315 M694.269 26.1121 Q703.991 26.1121 709.54 32.4315 Q715.09 38.7509 715.09 49.9314 Q715.09 61.0714 709.54 67.4314 Q703.991 73.7508 694.269 73.7508 Q684.506 73.7508 678.956 67.4314 Q673.447 61.0714 673.447 49.9314 Q673.447 38.7509 678.956 32.4315 Q684.506 26.1121 694.269 26.1121 Z" fill="#000000" fill-rule="nonzero" fill-opacity="1" /><path clip-path="url(#clip730)" d="M765.159 45.1919 L765.159 72.576 L757.706 72.576 L757.706 45.4349 Q757.706 38.994 755.194 35.7938 Q752.683 32.5936 747.659 32.5936 Q741.624 32.5936 738.14 36.4419 Q734.656 40.2903 734.656 46.9338 L734.656 72.576 L727.162 72.576 L727.162 27.2059 L734.656 27.2059 L734.656 34.2544 Q737.33 30.163 740.935 28.1376 Q744.581 26.1121 749.32 26.1121 Q757.139 26.1121 761.149 30.9732 Q765.159 35.7938 765.159 45.1919 Z" fill="#000000" fill-rule="nonzero" fill-opacity="1" /><path clip-path="url(#clip730)" d="M839.048 28.9478 L839.048 35.9153 Q835.888 34.1734 832.688 33.3227 Q829.528 32.4315 826.288 32.4315 Q819.036 32.4315 815.026 37.0496 Q811.016 41.6271 811.016 49.9314 Q811.016 58.2358 815.026 62.8538 Q819.036 67.4314 826.288 67.4314 Q829.528 67.4314 832.688 66.5807 Q835.888 65.6895 839.048 63.9476 L839.048 70.8341 Q835.929 72.2924 832.566 73.0216 Q829.245 73.7508 825.477 73.7508 Q815.229 73.7508 809.193 67.3098 Q803.157 60.8689 803.157 49.9314 Q803.157 38.832 809.233 32.472 Q815.35 26.1121 825.963 26.1121 Q829.407 26.1121 832.688 26.8413 Q835.969 27.5299 839.048 28.9478 Z" fill="#000000" fill-rule="nonzero" fill-opacity="1" /><path clip-path="url(#clip730)" d="M889.725 45.1919 L889.725 72.576 L882.271 72.576 L882.271 45.4349 Q882.271 38.994 879.759 35.7938 Q877.248 32.5936 872.225 32.5936 Q866.189 32.5936 862.705 36.4419 Q859.221 40.2903 859.221 46.9338 L859.221 72.576 L851.727 72.576 L851.727 9.54393 L859.221 9.54393 L859.221 34.2544 Q861.895 30.163 865.5 28.1376 Q869.146 26.1121 873.886 26.1121 Q881.704 26.1121 885.714 30.9732 Q889.725 35.7938 889.725 45.1919 Z" fill="#000000" fill-rule="nonzero" fill-opacity="1" /><path clip-path="url(#clip730)" d="M943.399 48.0275 L943.399 51.6733 L909.129 51.6733 Q909.615 59.3701 913.747 63.421 Q917.919 67.4314 925.332 67.4314 Q929.626 67.4314 933.636 66.3781 Q937.687 65.3249 941.657 63.2184 L941.657 70.267 Q937.647 71.9684 933.434 72.8596 Q929.221 73.7508 924.887 73.7508 Q914.03 73.7508 907.67 67.4314 Q901.351 61.1119 901.351 50.3365 Q901.351 39.1965 907.346 32.6746 Q913.382 26.1121 923.59 26.1121 Q932.745 26.1121 938.052 32.0264 Q943.399 37.9003 943.399 48.0275 M935.945 45.84 Q935.864 39.7232 932.502 36.0774 Q929.18 32.4315 923.671 32.4315 Q917.433 32.4315 913.666 35.9558 Q909.939 39.4801 909.372 45.8805 L935.945 45.84 Z" fill="#000000" fill-rule="nonzero" fill-opacity="1" /><path clip-path="url(#clip730)" d="M988.283 28.9478 L988.283 35.9153 Q985.123 34.1734 981.923 33.3227 Q978.764 32.4315 975.523 32.4315 Q968.272 32.4315 964.261 37.0496 Q960.251 41.6271 960.251 49.9314 Q960.251 58.2358 964.261 62.8538 Q968.272 67.4314 975.523 67.4314 Q978.764 67.4314 981.923 66.5807 Q985.123 65.6895 988.283 63.9476 L988.283 70.8341 Q985.164 72.2924 981.802 73.0216 Q978.48 73.7508 974.713 73.7508 Q964.464 73.7508 958.428 67.3098 Q952.392 60.8689 952.392 49.9314 Q952.392 38.832 958.469 32.472 Q964.585 26.1121 975.199 26.1121 Q978.642 26.1121 981.923 26.8413 Q985.204 27.5299 988.283 28.9478 Z" fill="#000000" fill-rule="nonzero" fill-opacity="1" /><path clip-path="url(#clip730)" d="M1000.96 9.54393 L1008.46 9.54393 L1008.46 46.7717 L1030.7 27.2059 L1040.22 27.2059 L1016.15 48.4326 L1041.23 72.576 L1031.51 72.576 L1008.46 50.4176 L1008.46 72.576 L1000.96 72.576 L1000.96 9.54393 Z" fill="#000000" fill-rule="nonzero" fill-opacity="1" /><path clip-path="url(#clip730)" d="M1051.19 62.2867 L1059.74 62.2867 L1059.74 72.576 L1051.19 72.576 L1051.19 62.2867 M1051.19 29.6769 L1059.74 29.6769 L1059.74 39.9662 L1051.19 39.9662 L1051.19 29.6769 Z" fill="#000000" fill-rule="nonzero" fill-opacity="1" /><path clip-path="url(#clip730)" d="M1100.37 27.2059 L1135.78 27.2059 L1135.78 34.0114 L1107.74 66.6212 L1135.78 66.6212 L1135.78 72.576 L1099.36 72.576 L1099.36 65.7705 L1127.39 33.1607 L1100.37 33.1607 L1100.37 27.2059 Z" fill="#000000" fill-rule="nonzero" fill-opacity="1" /><path clip-path="url(#clip730)" d="M1143.39 46.5287 L1165.23 46.5287 L1165.23 53.1722 L1143.39 53.1722 L1143.39 46.5287 Z" fill="#000000" fill-rule="nonzero" fill-opacity="1" /><path clip-path="url(#clip730)" d="M1206.02 28.5427 L1206.02 35.5912 Q1202.86 33.9709 1199.46 33.1607 Q1196.05 32.3505 1192.41 32.3505 Q1186.86 32.3505 1184.06 34.0519 Q1181.31 35.7533 1181.31 39.156 Q1181.31 41.7486 1183.29 43.2475 Q1185.28 44.7058 1191.27 46.0426 L1193.83 46.6097 Q1201.77 48.3111 1205.09 51.4303 Q1208.45 54.509 1208.45 60.0587 Q1208.45 66.3781 1203.43 70.0644 Q1198.44 73.7508 1189.69 73.7508 Q1186.05 73.7508 1182.08 73.0216 Q1178.15 72.3329 1173.77 70.9151 L1173.77 63.2184 Q1177.91 65.3654 1181.92 66.4591 Q1185.93 67.5124 1189.86 67.5124 Q1195.12 67.5124 1197.96 65.73 Q1200.79 63.9071 1200.79 60.6258 Q1200.79 57.5877 1198.73 55.9673 Q1196.7 54.3469 1189.78 52.8481 L1187.18 52.2405 Q1180.26 50.7821 1177.18 47.7845 Q1174.1 44.7463 1174.1 39.4801 Q1174.1 33.0797 1178.64 29.5959 Q1183.17 26.1121 1191.52 26.1121 Q1195.65 26.1121 1199.29 26.7198 Q1202.94 27.3274 1206.02 28.5427 Z" fill="#000000" fill-rule="nonzero" fill-opacity="1" /><path clip-path="url(#clip730)" d="M1252.97 28.9478 L1252.97 35.9153 Q1249.81 34.1734 1246.61 33.3227 Q1243.45 32.4315 1240.21 32.4315 Q1232.96 32.4315 1228.95 37.0496 Q1224.94 41.6271 1224.94 49.9314 Q1224.94 58.2358 1228.95 62.8538 Q1232.96 67.4314 1240.21 67.4314 Q1243.45 67.4314 1246.61 66.5807 Q1249.81 65.6895 1252.97 63.9476 L1252.97 70.8341 Q1249.85 72.2924 1246.49 73.0216 Q1243.17 73.7508 1239.4 73.7508 Q1229.15 73.7508 1223.11 67.3098 Q1217.08 60.8689 1217.08 49.9314 Q1217.08 38.832 1223.15 32.472 Q1229.27 26.1121 1239.88 26.1121 Q1243.33 26.1121 1246.61 26.8413 Q1249.89 27.5299 1252.97 28.9478 Z" fill="#000000" fill-rule="nonzero" fill-opacity="1" /><path clip-path="url(#clip730)" d="M1283.51 32.4315 Q1277.52 32.4315 1274.03 37.1306 Q1270.55 41.7891 1270.55 49.9314 Q1270.55 58.0738 1273.99 62.7728 Q1277.48 67.4314 1283.51 67.4314 Q1289.47 67.4314 1292.95 62.7323 Q1296.44 58.0333 1296.44 49.9314 Q1296.44 41.8701 1292.95 37.1711 Q1289.47 32.4315 1283.51 32.4315 M1283.51 26.1121 Q1293.24 26.1121 1298.78 32.4315 Q1304.33 38.7509 1304.33 49.9314 Q1304.33 61.0714 1298.78 67.4314 Q1293.24 73.7508 1283.51 73.7508 Q1273.75 73.7508 1268.2 67.4314 Q1262.69 61.0714 1262.69 49.9314 Q1262.69 38.7509 1268.2 32.4315 Q1273.75 26.1121 1283.51 26.1121 Z" fill="#000000" fill-rule="nonzero" fill-opacity="1" /><path clip-path="url(#clip730)" d="M1342.98 34.1734 Q1341.72 33.4443 1340.23 33.1202 Q1338.77 32.7556 1336.99 32.7556 Q1330.67 32.7556 1327.26 36.8875 Q1323.9 40.9789 1323.9 48.6757 L1323.9 72.576 L1316.41 72.576 L1316.41 27.2059 L1323.9 27.2059 L1323.9 34.2544 Q1326.25 30.1225 1330.02 28.1376 Q1333.78 26.1121 1339.17 26.1121 Q1339.94 26.1121 1340.87 26.2337 Q1341.81 26.3147 1342.94 26.5172 L1342.98 34.1734 Z" fill="#000000" fill-rule="nonzero" fill-opacity="1" /><path clip-path="url(#clip730)" d="M1387.78 48.0275 L1387.78 51.6733 L1353.51 51.6733 Q1354 59.3701 1358.13 63.421 Q1362.3 67.4314 1369.72 67.4314 Q1374.01 67.4314 1378.02 66.3781 Q1382.07 65.3249 1386.04 63.2184 L1386.04 70.267 Q1382.03 71.9684 1377.82 72.8596 Q1373.61 73.7508 1369.27 73.7508 Q1358.41 73.7508 1352.05 67.4314 Q1345.73 61.1119 1345.73 50.3365 Q1345.73 39.1965 1351.73 32.6746 Q1357.77 26.1121 1367.97 26.1121 Q1377.13 26.1121 1382.44 32.0264 Q1387.78 37.9003 1387.78 48.0275 M1380.33 45.84 Q1380.25 39.7232 1376.89 36.0774 Q1373.56 32.4315 1368.06 32.4315 Q1361.82 32.4315 1358.05 35.9558 Q1354.32 39.4801 1353.76 45.8805 L1380.33 45.84 Z" fill="#000000" fill-rule="nonzero" fill-opacity="1" /><path clip-path="url(#clip730)" d="M1428.94 28.5427 L1428.94 35.5912 Q1425.78 33.9709 1422.38 33.1607 Q1418.98 32.3505 1415.33 32.3505 Q1409.78 32.3505 1406.98 34.0519 Q1404.23 35.7533 1404.23 39.156 Q1404.23 41.7486 1406.21 43.2475 Q1408.2 44.7058 1414.2 46.0426 L1416.75 46.6097 Q1424.69 48.3111 1428.01 51.4303 Q1431.37 54.509 1431.37 60.0587 Q1431.37 66.3781 1426.35 70.0644 Q1421.37 73.7508 1412.62 73.7508 Q1408.97 73.7508 1405 73.0216 Q1401.07 72.3329 1396.7 70.9151 L1396.7 63.2184 Q1400.83 65.3654 1404.84 66.4591 Q1408.85 67.5124 1412.78 67.5124 Q1418.04 67.5124 1420.88 65.73 Q1423.71 63.9071 1423.71 60.6258 Q1423.71 57.5877 1421.65 55.9673 Q1419.62 54.3469 1412.7 52.8481 L1410.1 52.2405 Q1403.18 50.7821 1400.1 47.7845 Q1397.02 44.7463 1397.02 39.4801 Q1397.02 33.0797 1401.56 29.5959 Q1406.09 26.1121 1414.44 26.1121 Q1418.57 26.1121 1422.22 26.7198 Q1425.86 27.3274 1428.94 28.5427 Z" fill="#000000" fill-rule="nonzero" fill-opacity="1" /><path clip-path="url(#clip730)" d="M1464.26 27.2059 L1472.16 27.2059 L1486.34 65.2844 L1500.52 27.2059 L1508.42 27.2059 L1491.41 72.576 L1481.28 72.576 L1464.26 27.2059 Z" fill="#000000" fill-rule="nonzero" fill-opacity="1" /><path clip-path="url(#clip730)" d="M1547.63 28.5427 L1547.63 35.5912 Q1544.47 33.9709 1541.07 33.1607 Q1537.67 32.3505 1534.02 32.3505 Q1528.47 32.3505 1525.68 34.0519 Q1522.92 35.7533 1522.92 39.156 Q1522.92 41.7486 1524.91 43.2475 Q1526.89 44.7058 1532.89 46.0426 L1535.44 46.6097 Q1543.38 48.3111 1546.7 51.4303 Q1550.06 54.509 1550.06 60.0587 Q1550.06 66.3781 1545.04 70.0644 Q1540.06 73.7508 1531.31 73.7508 Q1527.66 73.7508 1523.69 73.0216 Q1519.76 72.3329 1515.39 70.9151 L1515.39 63.2184 Q1519.52 65.3654 1523.53 66.4591 Q1527.54 67.5124 1531.47 67.5124 Q1536.74 67.5124 1539.57 65.73 Q1542.41 63.9071 1542.41 60.6258 Q1542.41 57.5877 1540.34 55.9673 Q1538.31 54.3469 1531.39 52.8481 L1528.8 52.2405 Q1521.87 50.7821 1518.79 47.7845 Q1515.71 44.7463 1515.71 39.4801 Q1515.71 33.0797 1520.25 29.5959 Q1524.78 26.1121 1533.13 26.1121 Q1537.26 26.1121 1540.91 26.7198 Q1544.55 27.3274 1547.63 28.5427 Z" fill="#000000" fill-rule="nonzero" fill-opacity="1" /><path clip-path="url(#clip730)" d="M1562.98 62.2867 L1571.53 62.2867 L1571.53 72.576 L1562.98 72.576 L1562.98 62.2867 Z" fill="#000000" fill-rule="nonzero" fill-opacity="1" /><path clip-path="url(#clip730)" d="M1615 12.096 L1649.76 12.096 L1649.76 18.9825 L1623.18 18.9825 L1623.18 36.8065 L1647.16 36.8065 L1647.16 43.6931 L1623.18 43.6931 L1623.18 72.576 L1615 72.576 L1615 12.096 Z" fill="#000000" fill-rule="nonzero" fill-opacity="1" /><path clip-path="url(#clip730)" d="M1682.65 34.1734 Q1681.39 33.4443 1679.89 33.1202 Q1678.44 32.7556 1676.65 32.7556 Q1670.33 32.7556 1666.93 36.8875 Q1663.57 40.9789 1663.57 48.6757 L1663.57 72.576 L1656.07 72.576 L1656.07 27.2059 L1663.57 27.2059 L1663.57 34.2544 Q1665.92 30.1225 1669.69 28.1376 Q1673.45 26.1121 1678.84 26.1121 Q1679.61 26.1121 1680.54 26.2337 Q1681.47 26.3147 1682.61 26.5172 L1682.65 34.1734 Z" fill="#000000" fill-rule="nonzero" fill-opacity="1" /><path clip-path="url(#clip730)" d="M1706.22 32.4315 Q1700.23 32.4315 1696.75 37.1306 Q1693.26 41.7891 1693.26 49.9314 Q1693.26 58.0738 1696.71 62.7728 Q1700.19 67.4314 1706.22 67.4314 Q1712.18 67.4314 1715.66 62.7323 Q1719.15 58.0333 1719.15 49.9314 Q1719.15 41.8701 1715.66 37.1711 Q1712.18 32.4315 1706.22 32.4315 M1706.22 26.1121 Q1715.95 26.1121 1721.5 32.4315 Q1727.05 38.7509 1727.05 49.9314 Q1727.05 61.0714 1721.5 67.4314 Q1715.95 73.7508 1706.22 73.7508 Q1696.46 73.7508 1690.91 67.4314 Q1685.4 61.0714 1685.4 49.9314 Q1685.4 38.7509 1690.91 32.4315 Q1696.46 26.1121 1706.22 26.1121 Z" fill="#000000" fill-rule="nonzero" fill-opacity="1" /><path clip-path="url(#clip730)" d="M1738.63 54.671 L1738.63 27.2059 L1746.09 27.2059 L1746.09 54.3874 Q1746.09 60.8284 1748.6 64.0691 Q1751.11 67.2693 1756.13 67.2693 Q1762.17 67.2693 1765.65 63.421 Q1769.18 59.5726 1769.18 52.9291 L1769.18 27.2059 L1776.63 27.2059 L1776.63 72.576 L1769.18 72.576 L1769.18 65.6084 Q1766.46 69.7404 1762.86 71.7658 Q1759.29 73.7508 1754.55 73.7508 Q1746.73 73.7508 1742.68 68.8897 Q1738.63 64.0286 1738.63 54.671 M1757.39 26.1121 L1757.39 26.1121 Z" fill="#000000" fill-rule="nonzero" fill-opacity="1" /><path clip-path="url(#clip730)" d="M1821.84 34.0924 L1821.84 9.54393 L1829.29 9.54393 L1829.29 72.576 L1821.84 72.576 L1821.84 65.7705 Q1819.49 69.8214 1815.88 71.8063 Q1812.32 73.7508 1807.29 73.7508 Q1799.07 73.7508 1793.89 67.1883 Q1788.74 60.6258 1788.74 49.9314 Q1788.74 39.2371 1793.89 32.6746 Q1799.07 26.1121 1807.29 26.1121 Q1812.32 26.1121 1815.88 28.0971 Q1819.49 30.0415 1821.84 34.0924 M1796.44 49.9314 Q1796.44 58.1548 1799.8 62.8538 Q1803.2 67.5124 1809.12 67.5124 Q1815.03 67.5124 1818.43 62.8538 Q1821.84 58.1548 1821.84 49.9314 Q1821.84 41.7081 1818.43 37.0496 Q1815.03 32.3505 1809.12 32.3505 Q1803.2 32.3505 1799.8 37.0496 Q1796.44 41.7081 1796.44 49.9314 Z" fill="#000000" fill-rule="nonzero" fill-opacity="1" /><path clip-path="url(#clip730)" d="M1883.45 48.0275 L1883.45 51.6733 L1849.18 51.6733 Q1849.67 59.3701 1853.8 63.421 Q1857.97 67.4314 1865.38 67.4314 Q1869.68 67.4314 1873.69 66.3781 Q1877.74 65.3249 1881.71 63.2184 L1881.71 70.267 Q1877.7 71.9684 1873.49 72.8596 Q1869.27 73.7508 1864.94 73.7508 Q1854.08 73.7508 1847.72 67.4314 Q1841.4 61.1119 1841.4 50.3365 Q1841.4 39.1965 1847.4 32.6746 Q1853.43 26.1121 1863.64 26.1121 Q1872.8 26.1121 1878.1 32.0264 Q1883.45 37.9003 1883.45 48.0275 M1876 45.84 Q1875.92 39.7232 1872.56 36.0774 Q1869.23 32.4315 1863.72 32.4315 Q1857.49 32.4315 1853.72 35.9558 Q1849.99 39.4801 1849.42 45.8805 L1876 45.84 Z" fill="#000000" fill-rule="nonzero" fill-opacity="1" /><path clip-path="url(#clip730)" d="M1959.77 45.1919 L1959.77 72.576 L1952.32 72.576 L1952.32 45.4349 Q1952.32 38.994 1949.81 35.7938 Q1947.29 32.5936 1942.27 32.5936 Q1936.24 32.5936 1932.75 36.4419 Q1929.27 40.2903 1929.27 46.9338 L1929.27 72.576 L1921.77 72.576 L1921.77 27.2059 L1929.27 27.2059 L1929.27 34.2544 Q1931.94 30.163 1935.55 28.1376 Q1939.19 26.1121 1943.93 26.1121 Q1951.75 26.1121 1955.76 30.9732 Q1959.77 35.7938 1959.77 45.1919 Z" fill="#000000" fill-rule="nonzero" fill-opacity="1" /><path clip-path="url(#clip730)" d="M1973.87 54.671 L1973.87 27.2059 L1981.32 27.2059 L1981.32 54.3874 Q1981.32 60.8284 1983.83 64.0691 Q1986.34 67.2693 1991.37 67.2693 Q1997.4 67.2693 2000.89 63.421 Q2004.41 59.5726 2004.41 52.9291 L2004.41 27.2059 L2011.87 27.2059 L2011.87 72.576 L2004.41 72.576 L2004.41 65.6084 Q2001.7 69.7404 1998.09 71.7658 Q1994.53 73.7508 1989.79 73.7508 Q1981.97 73.7508 1977.92 68.8897 Q1973.87 64.0286 1973.87 54.671 M1992.62 26.1121 L1992.62 26.1121 Z" fill="#000000" fill-rule="nonzero" fill-opacity="1" /><path clip-path="url(#clip730)" d="M2062.54 35.9153 Q2065.34 30.8922 2069.23 28.5022 Q2073.12 26.1121 2078.38 26.1121 Q2085.47 26.1121 2089.32 31.0947 Q2093.17 36.0368 2093.17 45.1919 L2093.17 72.576 L2085.67 72.576 L2085.67 45.4349 Q2085.67 38.913 2083.36 35.7533 Q2081.06 32.5936 2076.32 32.5936 Q2070.52 32.5936 2067.16 36.4419 Q2063.8 40.2903 2063.8 46.9338 L2063.8 72.576 L2056.3 72.576 L2056.3 45.4349 Q2056.3 38.8725 2054 35.7533 Q2051.69 32.5936 2046.87 32.5936 Q2041.15 32.5936 2037.79 36.4824 Q2034.43 40.3308 2034.43 46.9338 L2034.43 72.576 L2026.94 72.576 L2026.94 27.2059 L2034.43 27.2059 L2034.43 34.2544 Q2036.98 30.082 2040.55 28.0971 Q2044.11 26.1121 2049.01 26.1121 Q2053.95 26.1121 2057.4 28.6237 Q2060.88 31.1352 2062.54 35.9153 Z" fill="#000000" fill-rule="nonzero" fill-opacity="1" /><path clip-path="url(#clip730)" d="M2140.6 49.9314 Q2140.6 41.7081 2137.2 37.0496 Q2133.84 32.3505 2127.92 32.3505 Q2122.01 32.3505 2118.61 37.0496 Q2115.24 41.7081 2115.24 49.9314 Q2115.24 58.1548 2118.61 62.8538 Q2122.01 67.5124 2127.92 67.5124 Q2133.84 67.5124 2137.2 62.8538 Q2140.6 58.1548 2140.6 49.9314 M2115.24 34.0924 Q2117.59 30.0415 2121.16 28.0971 Q2124.76 26.1121 2129.75 26.1121 Q2138.01 26.1121 2143.16 32.6746 Q2148.34 39.2371 2148.34 49.9314 Q2148.34 60.6258 2143.16 67.1883 Q2138.01 73.7508 2129.75 73.7508 Q2124.76 73.7508 2121.16 71.8063 Q2117.59 69.8214 2115.24 65.7705 L2115.24 72.576 L2107.75 72.576 L2107.75 9.54393 L2115.24 9.54393 L2115.24 34.0924 Z" fill="#000000" fill-rule="nonzero" fill-opacity="1" /><path clip-path="url(#clip730)" d="M2199.5 48.0275 L2199.5 51.6733 L2165.23 51.6733 Q2165.72 59.3701 2169.85 63.421 Q2174.02 67.4314 2181.44 67.4314 Q2185.73 67.4314 2189.74 66.3781 Q2193.79 65.3249 2197.76 63.2184 L2197.76 70.267 Q2193.75 71.9684 2189.54 72.8596 Q2185.33 73.7508 2180.99 73.7508 Q2170.13 73.7508 2163.77 67.4314 Q2157.46 61.1119 2157.46 50.3365 Q2157.46 39.1965 2163.45 32.6746 Q2169.49 26.1121 2179.69 26.1121 Q2188.85 26.1121 2194.16 32.0264 Q2199.5 37.9003 2199.5 48.0275 M2192.05 45.84 Q2191.97 39.7232 2188.61 36.0774 Q2185.28 32.4315 2179.78 32.4315 Q2173.54 32.4315 2169.77 35.9558 Q2166.04 39.4801 2165.48 45.8805 L2192.05 45.84 Z" fill="#000000" fill-rule="nonzero" fill-opacity="1" /><path clip-path="url(#clip730)" d="M2238.03 34.1734 Q2236.77 33.4443 2235.27 33.1202 Q2233.81 32.7556 2232.03 32.7556 Q2225.71 32.7556 2222.31 36.8875 Q2218.95 40.9789 2218.95 48.6757 L2218.95 72.576 L2211.45 72.576 L2211.45 27.2059 L2218.95 27.2059 L2218.95 34.2544 Q2221.3 30.1225 2225.06 28.1376 Q2228.83 26.1121 2234.22 26.1121 Q2234.99 26.1121 2235.92 26.2337 Q2236.85 26.3147 2237.99 26.5172 L2238.03 34.1734 Z" fill="#000000" fill-rule="nonzero" fill-opacity="1" /><circle clip-path="url(#clip732)" cx="426.812" cy="831.9" r="14.4" fill="#000080" fill-rule="evenodd" fill-opacity="1" stroke="#000000" stroke-opacity="1" stroke-width="3.2"/>
<circle clip-path="url(#clip732)" cx="1981.25" cy="764.062" r="14.4" fill="#000080" fill-rule="evenodd" fill-opacity="1" stroke="#000000" stroke-opacity="1" stroke-width="3.2"/>
<circle clip-path="url(#clip732)" cx="2136.69" cy="973.748" r="14.4" fill="#000080" fill-rule="evenodd" fill-opacity="1" stroke="#000000" stroke-opacity="1" stroke-width="3.2"/>
<circle clip-path="url(#clip732)" cx="582.256" cy="791.42" r="14.4" fill="#000080" fill-rule="evenodd" fill-opacity="1" stroke="#000000" stroke-opacity="1" stroke-width="3.2"/>
<circle clip-path="url(#clip732)" cx="737.699" cy="762.985" r="14.4" fill="#000080" fill-rule="evenodd" fill-opacity="1" stroke="#000000" stroke-opacity="1" stroke-width="3.2"/>
<circle clip-path="url(#clip732)" cx="1670.36" cy="848.148" r="14.4" fill="#000080" fill-rule="evenodd" fill-opacity="1" stroke="#000000" stroke-opacity="1" stroke-width="3.2"/>
<circle clip-path="url(#clip732)" cx="1359.47" cy="746.393" r="14.4" fill="#000080" fill-rule="evenodd" fill-opacity="1" stroke="#000000" stroke-opacity="1" stroke-width="3.2"/>
<circle clip-path="url(#clip732)" cx="1670.36" cy="872.064" r="14.4" fill="#000080" fill-rule="evenodd" fill-opacity="1" stroke="#000000" stroke-opacity="1" stroke-width="3.2"/>
<circle clip-path="url(#clip732)" cx="582.256" cy="793.063" r="14.4" fill="#000080" fill-rule="evenodd" fill-opacity="1" stroke="#000000" stroke-opacity="1" stroke-width="3.2"/>
<circle clip-path="url(#clip732)" cx="2292.13" cy="386.442" r="14.4" fill="#000080" fill-rule="evenodd" fill-opacity="1" stroke="#000000" stroke-opacity="1" stroke-width="3.2"/>
<circle clip-path="url(#clip732)" cx="1204.03" cy="776.646" r="14.4" fill="#000080" fill-rule="evenodd" fill-opacity="1" stroke="#000000" stroke-opacity="1" stroke-width="3.2"/>
<circle clip-path="url(#clip732)" cx="271.369" cy="778.284" r="14.4" fill="#000080" fill-rule="evenodd" fill-opacity="1" stroke="#000000" stroke-opacity="1" stroke-width="3.2"/>
<circle clip-path="url(#clip732)" cx="2292.13" cy="655.044" r="14.4" fill="#000080" fill-rule="evenodd" fill-opacity="1" stroke="#000000" stroke-opacity="1" stroke-width="3.2"/>
<circle clip-path="url(#clip732)" cx="582.256" cy="778.641" r="14.4" fill="#000080" fill-rule="evenodd" fill-opacity="1" stroke="#000000" stroke-opacity="1" stroke-width="3.2"/>
<circle clip-path="url(#clip732)" cx="2292.13" cy="163.274" r="14.4" fill="#000080" fill-rule="evenodd" fill-opacity="1" stroke="#000000" stroke-opacity="1" stroke-width="3.2"/>
<circle clip-path="url(#clip732)" cx="271.369" cy="791.622" r="14.4" fill="#000080" fill-rule="evenodd" fill-opacity="1" stroke="#000000" stroke-opacity="1" stroke-width="3.2"/>
<circle clip-path="url(#clip732)" cx="426.812" cy="771.259" r="14.4" fill="#000080" fill-rule="evenodd" fill-opacity="1" stroke="#000000" stroke-opacity="1" stroke-width="3.2"/>
<circle clip-path="url(#clip732)" cx="1981.25" cy="762.531" r="14.4" fill="#000080" fill-rule="evenodd" fill-opacity="1" stroke="#000000" stroke-opacity="1" stroke-width="3.2"/>
<circle clip-path="url(#clip732)" cx="1048.59" cy="737.501" r="14.4" fill="#000080" fill-rule="evenodd" fill-opacity="1" stroke="#000000" stroke-opacity="1" stroke-width="3.2"/>
<circle clip-path="url(#clip732)" cx="893.142" cy="739.68" r="14.4" fill="#000080" fill-rule="evenodd" fill-opacity="1" stroke="#000000" stroke-opacity="1" stroke-width="3.2"/>
<circle clip-path="url(#clip732)" cx="1981.25" cy="799.154" r="14.4" fill="#000080" fill-rule="evenodd" fill-opacity="1" stroke="#000000" stroke-opacity="1" stroke-width="3.2"/>
<circle clip-path="url(#clip732)" cx="426.812" cy="787.302" r="14.4" fill="#000080" fill-rule="evenodd" fill-opacity="1" stroke="#000000" stroke-opacity="1" stroke-width="3.2"/>
<circle clip-path="url(#clip732)" cx="737.699" cy="754.283" r="14.4" fill="#000080" fill-rule="evenodd" fill-opacity="1" stroke="#000000" stroke-opacity="1" stroke-width="3.2"/>
<circle clip-path="url(#clip732)" cx="893.142" cy="810.168" r="14.4" fill="#000080" fill-rule="evenodd" fill-opacity="1" stroke="#000000" stroke-opacity="1" stroke-width="3.2"/>
<circle clip-path="url(#clip732)" cx="271.369" cy="827.332" r="14.4" fill="#000080" fill-rule="evenodd" fill-opacity="1" stroke="#000000" stroke-opacity="1" stroke-width="3.2"/>
<circle clip-path="url(#clip732)" cx="1048.59" cy="732.852" r="14.4" fill="#000080" fill-rule="evenodd" fill-opacity="1" stroke="#000000" stroke-opacity="1" stroke-width="3.2"/>
<circle clip-path="url(#clip732)" cx="271.369" cy="797.846" r="14.4" fill="#000080" fill-rule="evenodd" fill-opacity="1" stroke="#000000" stroke-opacity="1" stroke-width="3.2"/>
<circle clip-path="url(#clip732)" cx="271.369" cy="805.651" r="14.4" fill="#000080" fill-rule="evenodd" fill-opacity="1" stroke="#000000" stroke-opacity="1" stroke-width="3.2"/>
<circle clip-path="url(#clip732)" cx="1048.59" cy="788.253" r="14.4" fill="#000080" fill-rule="evenodd" fill-opacity="1" stroke="#000000" stroke-opacity="1" stroke-width="3.2"/>
<circle clip-path="url(#clip732)" cx="271.369" cy="797.897" r="14.4" fill="#000080" fill-rule="evenodd" fill-opacity="1" stroke="#000000" stroke-opacity="1" stroke-width="3.2"/>
<circle clip-path="url(#clip732)" cx="1981.25" cy="675.775" r="14.4" fill="#000080" fill-rule="evenodd" fill-opacity="1" stroke="#000000" stroke-opacity="1" stroke-width="3.2"/>
<circle clip-path="url(#clip732)" cx="893.142" cy="777.805" r="14.4" fill="#000080" fill-rule="evenodd" fill-opacity="1" stroke="#000000" stroke-opacity="1" stroke-width="3.2"/>
<circle clip-path="url(#clip732)" cx="1825.8" cy="681.058" r="14.4" fill="#000080" fill-rule="evenodd" fill-opacity="1" stroke="#000000" stroke-opacity="1" stroke-width="3.2"/>
<circle clip-path="url(#clip732)" cx="893.142" cy="749.962" r="14.4" fill="#000080" fill-rule="evenodd" fill-opacity="1" stroke="#000000" stroke-opacity="1" stroke-width="3.2"/>
<circle clip-path="url(#clip732)" cx="1825.8" cy="776.14" r="14.4" fill="#000080" fill-rule="evenodd" fill-opacity="1" stroke="#000000" stroke-opacity="1" stroke-width="3.2"/>
<circle clip-path="url(#clip732)" cx="1204.03" cy="741.193" r="14.4" fill="#000080" fill-rule="evenodd" fill-opacity="1" stroke="#000000" stroke-opacity="1" stroke-width="3.2"/>
<circle clip-path="url(#clip732)" cx="1359.47" cy="704.544" r="14.4" fill="#000080" fill-rule="evenodd" fill-opacity="1" stroke="#000000" stroke-opacity="1" stroke-width="3.2"/>
<circle clip-path="url(#clip732)" cx="1514.92" cy="660.947" r="14.4" fill="#000080" fill-rule="evenodd" fill-opacity="1" stroke="#000000" stroke-opacity="1" stroke-width="3.2"/>
<circle clip-path="url(#clip732)" cx="2292.13" cy="421.145" r="14.4" fill="#000080" fill-rule="evenodd" fill-opacity="1" stroke="#000000" stroke-opacity="1" stroke-width="3.2"/>
<circle clip-path="url(#clip732)" cx="1204.03" cy="776.829" r="14.4" fill="#000080" fill-rule="evenodd" fill-opacity="1" stroke="#000000" stroke-opacity="1" stroke-width="3.2"/>
<circle clip-path="url(#clip732)" cx="737.699" cy="761.573" r="14.4" fill="#000080" fill-rule="evenodd" fill-opacity="1" stroke="#000000" stroke-opacity="1" stroke-width="3.2"/>
<circle clip-path="url(#clip732)" cx="582.256" cy="791.818" r="14.4" fill="#000080" fill-rule="evenodd" fill-opacity="1" stroke="#000000" stroke-opacity="1" stroke-width="3.2"/>
<circle clip-path="url(#clip732)" cx="1670.36" cy="929.707" r="14.4" fill="#000080" fill-rule="evenodd" fill-opacity="1" stroke="#000000" stroke-opacity="1" stroke-width="3.2"/>
<circle clip-path="url(#clip732)" cx="737.699" cy="819.495" r="14.4" fill="#000080" fill-rule="evenodd" fill-opacity="1" stroke="#000000" stroke-opacity="1" stroke-width="3.2"/>
<circle clip-path="url(#clip732)" cx="1670.36" cy="736.945" r="14.4" fill="#000080" fill-rule="evenodd" fill-opacity="1" stroke="#000000" stroke-opacity="1" stroke-width="3.2"/>
<circle clip-path="url(#clip732)" cx="1825.8" cy="842.451" r="14.4" fill="#000080" fill-rule="evenodd" fill-opacity="1" stroke="#000000" stroke-opacity="1" stroke-width="3.2"/>
<circle clip-path="url(#clip732)" cx="2136.69" cy="1054.35" r="14.4" fill="#000080" fill-rule="evenodd" fill-opacity="1" stroke="#000000" stroke-opacity="1" stroke-width="3.2"/>
<circle clip-path="url(#clip732)" cx="737.699" cy="811.14" r="14.4" fill="#000080" fill-rule="evenodd" fill-opacity="1" stroke="#000000" stroke-opacity="1" stroke-width="3.2"/>
<circle clip-path="url(#clip732)" cx="1514.92" cy="895.292" r="14.4" fill="#000080" fill-rule="evenodd" fill-opacity="1" stroke="#000000" stroke-opacity="1" stroke-width="3.2"/>
<circle clip-path="url(#clip732)" cx="271.369" cy="779.707" r="14.4" fill="#000080" fill-rule="evenodd" fill-opacity="1" stroke="#000000" stroke-opacity="1" stroke-width="3.2"/>
<polyline clip-path="url(#clip732)" style="stroke:#000000; stroke-linecap:round; stroke-linejoin:round; stroke-width:4; stroke-opacity:1; fill:none" stroke-dasharray="16, 10" points="-1931.26,773.326 4494.77,773.326 "/>
<polyline clip-path="url(#clip732)" style="stroke:#ff0000; stroke-linecap:round; stroke-linejoin:round; stroke-width:4; stroke-opacity:1; fill:none" stroke-dasharray="2, 4" points="-1931.26,1386.4 4494.77,1386.4 "/>
<polyline clip-path="url(#clip732)" style="stroke:#ff0000; stroke-linecap:round; stroke-linejoin:round; stroke-width:4; stroke-opacity:1; fill:none" stroke-dasharray="2, 4" points="-1931.26,160.256 4494.77,160.256 "/>
<path clip-path="url(#clip730)" d="M282.146 322.316 L748.198 322.316 L748.198 166.796 L282.146 166.796  Z" fill="#ffffff" fill-rule="evenodd" fill-opacity="1"/>
<polyline clip-path="url(#clip730)" style="stroke:#000000; stroke-linecap:round; stroke-linejoin:round; stroke-width:4; stroke-opacity:1; fill:none" points="282.146,322.316 748.198,322.316 748.198,166.796 282.146,166.796 282.146,322.316 "/>
<circle clip-path="url(#clip730)" cx="377.347" cy="218.636" r="20.48" fill="#000080" fill-rule="evenodd" fill-opacity="1" stroke="#000000" stroke-opacity="1" stroke-width="4.55111"/>
<path clip-path="url(#clip730)" d="M472.547 201.356 L501.783 201.356 L501.783 205.291 L489.515 205.291 L489.515 235.916 L484.816 235.916 L484.816 205.291 L472.547 205.291 L472.547 201.356 Z" fill="#000000" fill-rule="nonzero" fill-opacity="1" /><path clip-path="url(#clip730)" d="M520.232 221.888 L520.232 223.971 L500.649 223.971 Q500.927 228.369 503.288 230.684 Q505.672 232.976 509.908 232.976 Q512.362 232.976 514.653 232.374 Q516.968 231.772 519.237 230.569 L519.237 234.596 Q516.945 235.568 514.538 236.078 Q512.13 236.587 509.653 236.587 Q503.45 236.587 499.816 232.976 Q496.204 229.365 496.204 223.207 Q496.204 216.842 499.63 213.115 Q503.079 209.365 508.913 209.365 Q514.144 209.365 517.177 212.745 Q520.232 216.101 520.232 221.888 M515.973 220.638 Q515.927 217.143 514.005 215.059 Q512.107 212.976 508.959 212.976 Q505.394 212.976 503.241 214.99 Q501.112 217.004 500.788 220.661 L515.973 220.638 Z" fill="#000000" fill-rule="nonzero" fill-opacity="1" /><path clip-path="url(#clip730)" d="M543.75 210.754 L543.75 214.782 Q541.945 213.856 540.001 213.393 Q538.056 212.93 535.973 212.93 Q532.801 212.93 531.204 213.902 Q529.63 214.874 529.63 216.819 Q529.63 218.3 530.764 219.157 Q531.899 219.99 535.325 220.754 L536.783 221.078 Q541.32 222.05 543.218 223.832 Q545.139 225.592 545.139 228.763 Q545.139 232.374 542.269 234.481 Q539.422 236.587 534.422 236.587 Q532.339 236.587 530.07 236.17 Q527.825 235.777 525.325 234.967 L525.325 230.569 Q527.686 231.795 529.977 232.42 Q532.269 233.022 534.514 233.022 Q537.524 233.022 539.144 232.004 Q540.764 230.962 540.764 229.087 Q540.764 227.351 539.584 226.425 Q538.426 225.499 534.468 224.643 L532.987 224.295 Q529.028 223.462 527.269 221.749 Q525.51 220.013 525.51 217.004 Q525.51 213.346 528.102 211.356 Q530.695 209.365 535.463 209.365 Q537.825 209.365 539.908 209.712 Q541.991 210.059 543.75 210.754 Z" fill="#000000" fill-rule="nonzero" fill-opacity="1" /><path clip-path="url(#clip730)" d="M556.135 202.629 L556.135 209.99 L564.908 209.99 L564.908 213.3 L556.135 213.3 L556.135 227.374 Q556.135 230.545 556.991 231.448 Q557.871 232.351 560.533 232.351 L564.908 232.351 L564.908 235.916 L560.533 235.916 Q555.602 235.916 553.727 234.087 Q551.852 232.235 551.852 227.374 L551.852 213.3 L548.727 213.3 L548.727 209.99 L551.852 209.99 L551.852 202.629 L556.135 202.629 Z" fill="#000000" fill-rule="nonzero" fill-opacity="1" /><path clip-path="url(#clip730)" d="M589.699 232.027 L589.699 245.777 L585.417 245.777 L585.417 209.99 L589.699 209.99 L589.699 213.925 Q591.042 211.61 593.079 210.499 Q595.139 209.365 597.986 209.365 Q602.709 209.365 605.648 213.115 Q608.611 216.865 608.611 222.976 Q608.611 229.087 605.648 232.837 Q602.709 236.587 597.986 236.587 Q595.139 236.587 593.079 235.476 Q591.042 234.342 589.699 232.027 M604.19 222.976 Q604.19 218.277 602.246 215.615 Q600.324 212.93 596.945 212.93 Q593.565 212.93 591.621 215.615 Q589.699 218.277 589.699 222.976 Q589.699 227.675 591.621 230.36 Q593.565 233.022 596.945 233.022 Q600.324 233.022 602.246 230.36 Q604.19 227.675 604.19 222.976 Z" fill="#000000" fill-rule="nonzero" fill-opacity="1" /><path clip-path="url(#clip730)" d="M625.718 212.976 Q622.292 212.976 620.301 215.661 Q618.31 218.323 618.31 222.976 Q618.31 227.629 620.278 230.314 Q622.269 232.976 625.718 232.976 Q629.12 232.976 631.111 230.291 Q633.102 227.606 633.102 222.976 Q633.102 218.37 631.111 215.684 Q629.12 212.976 625.718 212.976 M625.718 209.365 Q631.273 209.365 634.444 212.976 Q637.616 216.587 637.616 222.976 Q637.616 229.342 634.444 232.976 Q631.273 236.587 625.718 236.587 Q620.139 236.587 616.968 232.976 Q613.82 229.342 613.82 222.976 Q613.82 216.587 616.968 212.976 Q620.139 209.365 625.718 209.365 Z" fill="#000000" fill-rule="nonzero" fill-opacity="1" /><path clip-path="url(#clip730)" d="M644.676 209.99 L648.935 209.99 L648.935 235.916 L644.676 235.916 L644.676 209.99 M644.676 199.897 L648.935 199.897 L648.935 205.291 L644.676 205.291 L644.676 199.897 Z" fill="#000000" fill-rule="nonzero" fill-opacity="1" /><path clip-path="url(#clip730)" d="M679.398 220.268 L679.398 235.916 L675.139 235.916 L675.139 220.407 Q675.139 216.726 673.703 214.897 Q672.268 213.069 669.398 213.069 Q665.949 213.069 663.958 215.268 Q661.967 217.467 661.967 221.263 L661.967 235.916 L657.685 235.916 L657.685 209.99 L661.967 209.99 L661.967 214.018 Q663.495 211.68 665.555 210.522 Q667.639 209.365 670.347 209.365 Q674.815 209.365 677.106 212.143 Q679.398 214.897 679.398 220.268 Z" fill="#000000" fill-rule="nonzero" fill-opacity="1" /><path clip-path="url(#clip730)" d="M692.106 202.629 L692.106 209.99 L700.879 209.99 L700.879 213.3 L692.106 213.3 L692.106 227.374 Q692.106 230.545 692.963 231.448 Q693.842 232.351 696.504 232.351 L700.879 232.351 L700.879 235.916 L696.504 235.916 Q691.574 235.916 689.699 234.087 Q687.824 232.235 687.824 227.374 L687.824 213.3 L684.699 213.3 L684.699 209.99 L687.824 209.99 L687.824 202.629 L692.106 202.629 Z" fill="#000000" fill-rule="nonzero" fill-opacity="1" /><path clip-path="url(#clip730)" d="M723.009 210.754 L723.009 214.782 Q721.203 213.856 719.259 213.393 Q717.314 212.93 715.231 212.93 Q712.06 212.93 710.463 213.902 Q708.888 214.874 708.888 216.819 Q708.888 218.3 710.023 219.157 Q711.157 219.99 714.583 220.754 L716.041 221.078 Q720.578 222.05 722.476 223.832 Q724.398 225.592 724.398 228.763 Q724.398 232.374 721.527 234.481 Q718.68 236.587 713.68 236.587 Q711.597 236.587 709.328 236.17 Q707.083 235.777 704.583 234.967 L704.583 230.569 Q706.944 231.795 709.236 232.42 Q711.527 233.022 713.773 233.022 Q716.782 233.022 718.402 232.004 Q720.023 230.962 720.023 229.087 Q720.023 227.351 718.842 226.425 Q717.685 225.499 713.726 224.643 L712.245 224.295 Q708.287 223.462 706.527 221.749 Q704.768 220.013 704.768 217.004 Q704.768 213.346 707.361 211.356 Q709.953 209.365 714.722 209.365 Q717.083 209.365 719.166 209.712 Q721.25 210.059 723.009 210.754 Z" fill="#000000" fill-rule="nonzero" fill-opacity="1" /><polyline clip-path="url(#clip730)" style="stroke:#ff0000; stroke-linecap:round; stroke-linejoin:round; stroke-width:4; stroke-opacity:1; fill:none" stroke-dasharray="2, 4" points="305.946,270.476 448.747,270.476 "/>
<path clip-path="url(#clip730)" d="M489.329 258.034 L489.329 266.992 L502.223 266.992 L502.223 270.927 L489.329 270.927 L489.329 279.885 L485.441 279.885 L485.441 270.927 L472.547 270.927 L472.547 266.992 L485.441 266.992 L485.441 258.034 L489.329 258.034 M472.547 283.821 L502.223 283.821 L502.223 287.756 L472.547 287.756 L472.547 283.821 Z" fill="#000000" fill-rule="nonzero" fill-opacity="1" /><path clip-path="url(#clip730)" d="M516.343 283.821 L532.663 283.821 L532.663 287.756 L510.718 287.756 L510.718 283.821 Q513.38 281.066 517.964 276.436 Q522.57 271.784 523.751 270.441 Q525.996 267.918 526.876 266.182 Q527.778 264.423 527.778 262.733 Q527.778 259.978 525.834 258.242 Q523.913 256.506 520.811 256.506 Q518.612 256.506 516.158 257.27 Q513.727 258.034 510.95 259.585 L510.95 254.862 Q513.774 253.728 516.227 253.149 Q518.681 252.571 520.718 252.571 Q526.089 252.571 529.283 255.256 Q532.477 257.941 532.477 262.432 Q532.477 264.561 531.667 266.483 Q530.88 268.381 528.774 270.973 Q528.195 271.645 525.093 274.862 Q521.991 278.057 516.343 283.821 Z" fill="#000000" fill-rule="nonzero" fill-opacity="1" /><path clip-path="url(#clip730)" d="M577.848 254.33 L577.848 258.89 Q575.186 257.617 572.824 256.992 Q570.463 256.367 568.264 256.367 Q564.445 256.367 562.361 257.848 Q560.301 259.33 560.301 262.061 Q560.301 264.353 561.667 265.534 Q563.056 266.691 566.899 267.409 L569.723 267.987 Q574.954 268.983 577.431 271.506 Q579.931 274.006 579.931 278.219 Q579.931 283.242 576.551 285.834 Q573.195 288.427 566.69 288.427 Q564.236 288.427 561.459 287.871 Q558.704 287.316 555.741 286.228 L555.741 281.413 Q558.588 283.01 561.32 283.821 Q564.051 284.631 566.69 284.631 Q570.695 284.631 572.871 283.057 Q575.047 281.483 575.047 278.566 Q575.047 276.02 573.473 274.584 Q571.922 273.149 568.357 272.432 L565.51 271.876 Q560.278 270.835 557.94 268.612 Q555.602 266.39 555.602 262.432 Q555.602 257.848 558.82 255.21 Q562.061 252.571 567.732 252.571 Q570.162 252.571 572.686 253.011 Q575.209 253.45 577.848 254.33 Z" fill="#000000" fill-rule="nonzero" fill-opacity="1" /><path clip-path="url(#clip730)" d="M591.898 257.038 L591.898 283.913 L597.546 283.913 Q604.699 283.913 608.009 280.672 Q611.343 277.432 611.343 270.441 Q611.343 263.497 608.009 260.279 Q604.699 257.038 597.546 257.038 L591.898 257.038 M587.222 253.196 L596.829 253.196 Q606.875 253.196 611.574 257.386 Q616.273 261.552 616.273 270.441 Q616.273 279.376 611.551 283.566 Q606.829 287.756 596.829 287.756 L587.222 287.756 L587.222 253.196 Z" fill="#000000" fill-rule="nonzero" fill-opacity="1" /></svg>
